<?xml version="1.0" ?><!DOCTYPE svg  PUBLIC '-//W3C//DTD SVG 1.1//EN'  'http://www.w3.org/Graphics/SVG/1.1/DTD/svg11.dtd'><svg width="129px" height="129px" viewBox="-0.5 0 129 129" style="fill-rule:evenodd;clip-rule:evenodd;stroke-linejoin:round;stroke-miterlimit:2;" version="1.1" xml:space="preserve" xmlns="http://www.w3.org/2000/svg" xmlns:serif="http://www.serif.com/" xmlns:xlink="http://www.w3.org/1999/xlink"><g transform="matrix(1,0,0,1,0,-678)"><g id="safety-boots" transform="matrix(1,0,0,1,0,678.333)"><rect height="128" style="fill:none;" width="128" x="0" y="0"/><g><g><g transform="matrix(0.83451,0,0,0.83451,-10653.5,-1706.5)"><path d="M12863,2194.5L12863,2066.5L12811.4,2066.5C12811.4,2066.5 12811.4,2069.75 12811.4,2073.9C12811.4,2084.43 12812.9,2094.91 12815.9,2105.01C12819.4,2115.72 12821.4,2125.93 12820.8,2135.05C12820.4,2140.44 12817.4,2145.32 12812.9,2148.27C12808.4,2151.21 12802.7,2151.88 12797.6,2150.08C12795.6,2149.39 12793.5,2148.64 12791.4,2147.9C12786.5,2146.28 12781,2147.15 12776.8,2150.22C12772.6,2153.29 12770.1,2158.2 12770.1,2163.43C12770,2178.21 12770,2194.5 12770,2194.5L12863,2194.5Z" style="fill:rgb(244,118,50);"/></g><g transform="matrix(1,0,0,1,-5714.49,-3300)"><path d="M5795.29,3318.02L5791.4,3318.02L5791.4,3424.83L5795.29,3424.83L5795.29,3318.02ZM5729.44,3385.42C5730.2,3385.53 5730.96,3385.7 5731.71,3385.94C5733.41,3386.56 5735.15,3387.19 5736.87,3387.76C5739.08,3388.54 5741.4,3388.77 5743.66,3388.46C5742.68,3388.33 5741.71,3388.1 5740.76,3387.76C5739.03,3387.19 5737.3,3386.56 5735.59,3385.94C5733.58,3385.29 5731.48,3385.12 5729.44,3385.42Z" style="fill:rgb(183,88,37);"/></g><g transform="matrix(1,0,0,1,-5714.49,-3300)"><path d="M5726.7,3424.83C5726.7,3424.83 5726.7,3411.24 5726.72,3398.9C5726.72,3394.54 5728.81,3390.44 5732.34,3387.88C5733.43,3387.09 5734.61,3386.47 5735.86,3386.04L5735.59,3385.94C5731.44,3384.6 5726.9,3385.32 5723.37,3387.88C5719.85,3390.44 5717.76,3394.54 5717.76,3398.9C5717.74,3411.24 5717.74,3424.83 5717.74,3424.83L5726.7,3424.83ZM5761.2,3318.02L5752.23,3318.02L5752.23,3324.19C5752.23,3332.98 5753.52,3341.73 5756.05,3350.15C5758.9,3359.09 5760.6,3367.62 5760.09,3375.22C5759.73,3379.72 5757.3,3383.8 5753.52,3386.25C5752.44,3386.95 5751.28,3387.5 5750.08,3387.89C5754.24,3389.24 5758.8,3388.64 5762.48,3386.25C5766.26,3383.8 5768.69,3379.72 5769.05,3375.22C5769.56,3367.62 5767.86,3359.09 5765.01,3350.15C5762.48,3341.73 5761.2,3332.98 5761.2,3324.19L5761.2,3318.02Z" style="fill:rgb(247,152,101);"/></g><g transform="matrix(1.1982,0,0,0.140234,-15797,-182.187)"><rect height="104.034" style="fill:rgb(136,136,136);" width="64.722" x="13186.6" y="2085.27"/></g><g transform="matrix(1.1982,0,0,0.0554512,-15797,3.42961)"><rect height="104.034" style="fill:rgb(102,102,102);" width="64.722" x="13186.6" y="2085.27"/></g><g transform="matrix(0.137507,0,0,0.140234,-1810.01,-182.187)"><rect height="104.034" style="fill:rgb(166,166,166);" width="64.722" x="13186.6" y="2085.27"/></g><g transform="matrix(0.83451,0,0,0.266233,-10653.5,-532.158)"><rect height="24.85" style="fill:rgb(136,136,136);" width="51.589" x="12811.4" y="2066.5"/></g><g transform="matrix(0.83451,0,0,0.130625,-10653.5,-248.554)"><rect height="24.85" style="fill:rgb(102,102,102);" width="51.589" x="12811.4" y="2066.5"/></g><g transform="matrix(0.294312,0,0,0.207084,-3819.23,-413.815)"><path d="M13251.3,2085.27L13186.6,2085.27C13186.6,2085.27 13186.6,2115.46 13186.6,2143.32C13186.6,2155.51 13190,2167.21 13196.1,2175.84C13202.2,2184.46 13210.4,2189.31 13219,2189.31C13219,2189.31 13219,2189.31 13219,2189.31C13227.6,2189.31 13235.8,2184.46 13241.9,2175.84C13247.9,2167.21 13251.3,2155.51 13251.3,2143.32C13251.3,2115.46 13251.3,2085.27 13251.3,2085.27Z" style="fill:rgb(244,187,49);"/></g><g transform="matrix(1,0,0,1,-5714.49,-3300)"><rect height="5.024" style="fill:rgb(247,204,101);" width="19.048" x="5776.24" y="3318.02"/></g><g transform="matrix(1,0,0,1,-5714.49,-3300)"><path d="M5776.24,3324.27L5776.24,3330.04C5776.24,3332.56 5777.24,3334.99 5779.03,3336.77C5780.81,3338.56 5783.24,3339.56 5785.76,3339.56C5785.76,3339.56 5785.76,3339.56 5785.76,3339.56C5788.29,3339.56 5790.71,3338.56 5792.5,3336.77C5794.28,3334.99 5795.29,3332.56 5795.29,3330.04C5795.29,3324.27 5795.29,3324.27 5795.29,3324.27C5795.29,3326.8 5794.28,3329.22 5792.5,3331C5790.71,3332.79 5788.29,3333.79 5785.76,3333.79C5785.76,3333.79 5785.76,3333.79 5785.76,3333.79C5783.24,3333.79 5780.81,3332.79 5779.03,3331C5777.24,3329.22 5776.24,3326.8 5776.24,3324.27Z" style="fill:rgb(183,140,37);"/></g><g transform="matrix(0.83451,0,0,0.266233,-10653.5,-532.158)"><path d="M12811.4,2066.5L12863,2066.5L12811.4,2066.5Z" style="fill:white;"/></g><g transform="matrix(0.95046,0,0,0.95046,-12101,-1960.96)"><path d="M12863,2194.5L12863,2066.5L12811.4,2066.5C12811.4,2066.5 12811.4,2070.8 12811.4,2075.83C12811.4,2085.32 12812.8,2094.76 12815.6,2103.83C12819.7,2116.53 12822,2128.55 12820.4,2138.92C12819.6,2143.4 12817,2147.34 12813.1,2149.68C12809.2,2152.01 12804.5,2152.51 12800.2,2151.02C12797.3,2150.02 12794.3,2148.95 12791.4,2147.9C12786.5,2146.28 12781,2147.15 12776.8,2150.22C12772.6,2153.29 12770.1,2158.2 12770.1,2163.43C12770,2178.21 12770,2194.5 12770,2194.5L12863,2194.5Z" style="fill:rgb(244,118,50);"/></g><g transform="matrix(1,0,0,1,-5714.49,-3300)"><path d="M5839.24,3303.18L5831.68,3303.18L5831.68,3424.83L5839.24,3424.83L5839.24,3303.18ZM5762.68,3380.25C5763.02,3380.33 5763.36,3380.43 5763.69,3380.54C5766.46,3381.54 5769.29,3382.56 5772.03,3383.51C5774.82,3384.47 5777.8,3384.56 5780.59,3383.81C5780.26,3383.72 5779.93,3383.62 5779.6,3383.51C5776.86,3382.56 5774.03,3381.54 5771.26,3380.54C5768.44,3379.62 5765.47,3379.55 5762.68,3380.25Z" style="fill:rgb(183,88,37);"/></g><g transform="matrix(1,0,0,1,-5714.49,-3300)"><path d="M5760.66,3424.83C5760.66,3424.83 5760.66,3409.35 5760.69,3395.3C5760.69,3390.33 5763.06,3385.66 5767.08,3382.74C5768.39,3381.79 5769.83,3381.06 5771.33,3380.57L5771.26,3380.54C5766.53,3379 5761.36,3379.83 5757.34,3382.74C5753.32,3385.66 5750.94,3390.33 5750.94,3395.3C5750.92,3409.35 5750.92,3424.83 5750.92,3424.83L5760.66,3424.83ZM5799.95,3303.18L5790.21,3303.18C5790.21,3303.18 5790.21,3307.26 5790.21,3312.04C5790.21,3321.06 5791.56,3330.03 5794.22,3338.66C5798.12,3350.73 5800.32,3362.15 5798.75,3372.01C5798.08,3376.27 5795.56,3380.01 5791.86,3382.23C5791.02,3382.74 5790.15,3383.15 5789.24,3383.47L5789.34,3383.51C5793.41,3384.92 5797.91,3384.45 5801.6,3382.23C5805.3,3380.01 5807.82,3376.27 5808.49,3372.01C5810.06,3362.15 5807.86,3350.73 5803.96,3338.66C5801.3,3330.03 5799.95,3321.06 5799.95,3312.04C5799.95,3307.26 5799.95,3303.18 5799.95,3303.18Z" style="fill:rgb(247,152,101);"/></g><g transform="matrix(0.95046,0,0,0.303224,-12101,-623.443)"><path d="M12811.4,2066.5L12863,2066.5L12811.4,2066.5Z" style="fill:white;"/></g><g transform="matrix(0.95046,0,0,0.303224,-12101,-623.443)"><rect height="24.85" style="fill:rgb(136,136,136);" width="51.589" x="12811.4" y="2066.5"/></g><g transform="matrix(0.95046,0,0,0.141333,-12101,-284.872)"><rect height="24.85" style="fill:rgb(102,102,102);" width="51.589" x="12811.4" y="2066.5"/></g><g transform="matrix(0.335205,0,0,0.235857,-4317.16,-488.657)"><path d="M13251.3,2085.27L13186.6,2085.27L13186.6,2144.22C13186.6,2169.12 13200.8,2189.31 13218.3,2189.31C13218.8,2189.31 13219.2,2189.31 13219.6,2189.31C13237.1,2189.31 13251.3,2169.12 13251.3,2144.22C13251.3,2116.12 13251.3,2085.27 13251.3,2085.27Z" style="fill:rgb(244,187,49);"/></g><g transform="matrix(1,0,0,1,-5714.49,-3300)"><path d="M5817.55,3310.57L5817.55,3317.08C5817.55,3322.95 5822.31,3327.71 5828.18,3327.71C5828.33,3327.71 5828.47,3327.71 5828.61,3327.71C5834.48,3327.71 5839.24,3322.95 5839.24,3317.08L5839.24,3310.57C5839.24,3316.45 5834.48,3321.21 5828.61,3321.21C5828.47,3321.21 5828.33,3321.21 5828.18,3321.21C5822.31,3321.21 5817.55,3316.45 5817.55,3310.57Z" style="fill:rgb(183,140,37);"/></g><g transform="matrix(1,0,0,0.513418,-5714.49,-1692.74)"><rect height="8.03" style="fill:rgb(247,204,101);" width="21.695" x="5817.55" y="3303.18"/></g><g transform="matrix(1.36469,0,0,0.159719,-17959.2,-224.845)"><rect height="104.034" style="fill:rgb(136,136,136);" width="64.722" x="13186.6" y="2085.27"/></g><g transform="matrix(1.36469,0,0,0.0571035,-17959.2,-0.187664)"><rect height="104.034" style="fill:rgb(102,102,102);" width="64.722" x="13186.6" y="2085.27"/></g><g transform="matrix(1,0,0,1,-5714.49,-3300)"><rect height="16.616" style="fill:rgb(166,166,166);" width="9.899" x="5750.92" y="3408.22"/></g></g><g transform="matrix(0.603859,0,0,0.603859,-7851.36,-1085.04)"><path d="M13188.4,1942.47C13189.6,1943.9 13190.3,1945.75 13190.3,1947.76C13190.3,1952.32 13186.6,1956.02 13182,1956.02C13179.6,1956.02 13177.5,1954.99 13176,1953.36C13174.7,1952.02 13172.6,1951.93 13171.3,1953.17C13169.9,1954.41 13169.8,1956.51 13171.1,1957.85C13173.8,1960.8 13177.7,1962.64 13182,1962.64C13190.2,1962.64 13196.9,1955.97 13196.9,1947.76C13196.9,1944.13 13195.6,1940.8 13193.4,1938.22C13192.3,1936.82 13190.2,1936.63 13188.8,1937.8C13187.4,1938.98 13187.2,1941.07 13188.4,1942.47Z" style="fill:rgb(183,88,37);"/></g></g></g></g></svg>