<?xml version="1.0" ?><!DOCTYPE svg  PUBLIC '-//W3C//DTD SVG 1.1//EN'  'http://www.w3.org/Graphics/SVG/1.1/DTD/svg11.dtd'><svg width="129px" height="129px" viewBox="0 0 129 129" style="fill-rule:evenodd;clip-rule:evenodd;stroke-linejoin:round;stroke-miterlimit:2;" version="1.1" xml:space="preserve" xmlns="http://www.w3.org/2000/svg" xmlns:serif="http://www.serif.com/" xmlns:xlink="http://www.w3.org/1999/xlink"><g transform="matrix(1,0,0,1,-473,-339)"><g id="drill" transform="matrix(1,0,0,1,473.126,339.167)"><rect height="128" style="fill:none;" width="128" x="0" y="0"/><g><g transform="matrix(1,0,0,1,-6187.62,-2960.84)"><path d="M6223.36,3026.6L6239.35,3026.6C6239.35,3020.46 6243.88,3016.92 6246.35,3014.45L6232.59,3014.45L6223.36,3026.6Z" style="fill:rgb(182,182,182);"/></g><g transform="matrix(1,0,0,1,-6187.62,-2960.84)"><path d="M6227.08,3026.6L6232.59,3019.35L6241.78,3019.35C6243.25,3017.29 6245.07,3015.73 6246.35,3014.45L6232.59,3014.45L6223.36,3026.6L6227.08,3026.6Z" style="fill:rgb(136,136,136);"/></g><g transform="matrix(0.763562,0,-1.89168e-16,0.763562,-10652.7,-251.237)"><path d="M13972.6,388.803L13955.4,474.266L14016.9,474.266C14016.9,474.266 14018,468.495 14019.2,462.388C14019.9,458.913 14019,455.308 14016.8,452.566C14014.6,449.824 14011.2,448.234 14007.7,448.234L14000.4,448.234L14012.4,388.803" style="fill:rgb(244,49,49);"/></g><g transform="matrix(1,0,0,1,-6187.62,-2960.84)"><path d="M6225.06,3051.86L6231.01,3022.34L6218.95,3022.34L6215.28,3040.57C6214.72,3043.34 6215.44,3046.21 6217.23,3048.4C6219.02,3050.59 6221.69,3051.86 6224.52,3051.86C6224.87,3051.86 6225.06,3051.86 6225.06,3051.86Z" style="fill:rgb(102,102,102);"/></g><g transform="matrix(1,0,0,1,-6187.62,-2960.84)"><path d="M6239.04,3057.68C6239.04,3057.68 6239.04,3057.68 6239.04,3057.68C6238.22,3061.77 6234.62,3064.71 6230.45,3064.71C6217.64,3064.71 6192.14,3064.71 6192.14,3064.71L6190.73,3071.73L6237.63,3071.73C6237.63,3071.73 6238.51,3067.33 6239.45,3062.66C6239.79,3060.98 6239.64,3059.25 6239.04,3057.68Z" style="fill:rgb(183,37,37);"/></g><g transform="matrix(1,0,0,1,-6187.62,-2960.84)"><path d="M6196.93,3071.73L6210.07,3006.48L6203.87,3006.48L6190.73,3071.73L6196.93,3071.73Z" style="fill:rgb(247,101,101);"/></g><g transform="matrix(0.763562,0,-1.89168e-16,0.763562,-10652.7,-251.237)"><path d="M14010.3,399.141L14012.4,388.803L13972.6,388.803L13968.5,409.579L13992.4,409.579L13994.5,399.141L14010.3,399.141Z" style="fill:rgb(183,37,37);"/></g><g transform="matrix(1,0,0,1,-6187.62,-2960.84)"><path d="M6225.87,3013.03L6220.82,3013.03L6215.28,3040.57C6214.72,3043.34 6215.44,3046.21 6217.23,3048.4C6219.02,3050.59 6221.69,3051.86 6224.52,3051.86C6224.87,3051.86 6225.06,3051.86 6225.06,3051.86L6225.27,3050.82C6224.13,3050.24 6223.11,3049.42 6222.27,3048.4C6220.48,3046.21 6219.77,3043.34 6220.32,3040.57L6225.87,3013.03Z" style="fill:rgb(76,76,76);"/></g><g transform="matrix(0.387856,2.16445e-14,1.45945e-13,0.763562,-5138.48,-251.237)"><path d="M13488.6,377.947L13570.4,377.947C13573.3,377.947 13575.6,376.773 13575.6,375.327C13575.6,373.882 13573.3,372.708 13570.4,372.708L13488.6,372.708C13485.7,372.708 13483.4,373.882 13483.4,375.327C13483.4,376.773 13485.7,377.947 13488.6,377.947Z" style="fill:rgb(200,200,200);"/></g><g transform="matrix(1,0,0,1,-6187.62,-2960.84)"><path d="M6278.76,2996.28C6278.81,2997.34 6279.69,2998.19 6280.76,2998.19L6312.5,2998.19C6313.58,2998.19 6314.45,2997.34 6314.5,2996.28L6278.76,2996.28Z" style="fill:rgb(136,136,136);"/></g><g transform="matrix(1,0,0,1,-6187.62,-2960.84)"><path d="M6265.35,3006.32C6265.35,3006.32 6271.89,3006.32 6274.8,3006.32C6278.09,3006.32 6280.76,3003.65 6280.76,3000.36C6280.76,2997.73 6280.76,2994.64 6280.76,2992.01C6280.76,2988.72 6278.09,2986.05 6274.8,2986.05L6265.35,2986.05L6265.35,3006.32Z" style="fill:rgb(182,182,182);"/></g><g transform="matrix(1,0,0,1,-6187.62,-2960.84)"><path d="M6265.35,3000.91L6265.35,3006.32C6265.35,3006.32 6271.89,3006.32 6274.8,3006.32C6278.09,3006.32 6280.76,3003.65 6280.76,3000.36L6280.76,2994.95C6280.76,2998.25 6278.09,3000.91 6274.8,3000.91L6265.35,3000.91Z" style="fill:rgb(136,136,136);"/></g><g transform="matrix(1,0,0,1,-6187.62,-2960.84)"><path d="M6265.35,2990.63L6274.8,2990.63C6278.09,2990.63 6280.76,2993.3 6280.76,2996.59L6280.76,3000.36C6280.76,2997.73 6280.76,2994.64 6280.76,2992.01C6280.76,2988.72 6278.09,2986.05 6274.8,2986.05L6265.35,2986.05L6265.35,2990.63Z" style="fill:rgb(200,200,200);"/></g><g transform="matrix(0.763562,0,-1.89168e-16,0.763562,-10206.2,-251.237)"><path d="M13383.8,351.436C13380.3,351.436 13377,352.816 13374.5,355.272C13372,357.727 13370.7,361.058 13370.7,364.531C13370.7,371.248 13370.7,379.407 13370.7,386.124C13370.7,389.597 13372,392.927 13374.5,395.383C13377,397.839 13380.3,399.218 13383.8,399.218C13404.1,399.218 13442.9,399.218 13462,399.218C13468.1,399.218 13473.2,394.207 13473.2,388.025C13473.2,380.376 13473.2,370.279 13473.2,362.629C13473.2,356.448 13468.1,351.436 13462,351.436L13383.8,351.436Z" style="fill:rgb(244,49,49);"/></g><g transform="matrix(1,0,0,1,-6187.62,-2960.84)"><path d="M6190.73,2996.99L6190.73,3004.43C6190.73,3007.08 6191.78,3009.62 6193.66,3011.5C6195.53,3013.38 6198.08,3014.43 6200.73,3014.43L6260.45,3014.43C6265.17,3014.43 6269,3010.6 6269,3005.88L6269,2998.44C6269,3003.16 6265.17,3006.99 6260.45,3006.99L6200.73,3006.99C6198.08,3006.99 6195.53,3005.93 6193.66,3004.06C6191.78,3002.18 6190.73,2999.64 6190.73,2996.99Z" style="fill:rgb(183,37,37);"/></g><g transform="matrix(1,0,0,1,-6187.62,-2960.84)"><path d="M6190.73,2995.05C6190.73,2992.39 6191.78,2989.85 6193.66,2987.98C6195.53,2986.1 6198.08,2985.05 6200.73,2985.05L6260.45,2985.05C6265.17,2985.05 6269,2988.87 6269,2993.59L6269,2986.49C6269,2981.77 6265.17,2977.94 6260.45,2977.94L6200.73,2977.94C6198.08,2977.94 6195.53,2979 6193.66,2980.87C6191.78,2982.75 6190.73,2985.29 6190.73,2987.94L6190.73,2995.05Z" style="fill:rgb(247,101,101);"/></g><g><g transform="matrix(0.0991853,0,-1.89168e-16,0.763562,-1272.83,-247.907)"><path d="M13488.6,377.947L13570.4,377.947C13581.5,377.947 13590.6,376.773 13590.6,375.327C13590.6,373.882 13581.5,372.708 13570.4,372.708L13488.6,372.708C13477.4,372.708 13468.4,373.882 13468.4,375.327C13468.4,376.773 13477.4,377.947 13488.6,377.947Z" style="fill-opacity:0.25;"/></g><g transform="matrix(0.0991853,0,-1.89168e-16,0.763562,-1272.83,-240.776)"><path d="M13488.6,377.947L13570.4,377.947C13581.5,377.947 13590.6,376.773 13590.6,375.327C13590.6,373.882 13581.5,372.708 13570.4,372.708L13488.6,372.708C13477.4,372.708 13468.4,373.882 13468.4,375.327C13468.4,376.773 13477.4,377.947 13488.6,377.947Z" style="fill-opacity:0.25;"/></g><g transform="matrix(0.0991853,0,-1.89168e-16,0.763562,-1272.83,-262.168)"><path d="M13488.6,377.947L13570.4,377.947C13581.5,377.947 13590.6,376.773 13590.6,375.327C13590.6,373.882 13581.5,372.708 13570.4,372.708L13488.6,372.708C13477.4,372.708 13468.4,373.882 13468.4,375.327C13468.4,376.773 13477.4,377.947 13488.6,377.947Z" style="fill-opacity:0.25;"/></g><g transform="matrix(0.0991853,0,-1.89168e-16,0.763562,-1272.83,-255.037)"><path d="M13488.6,377.947L13570.4,377.947C13581.5,377.947 13590.6,376.773 13590.6,375.327C13590.6,373.882 13581.5,372.708 13570.4,372.708L13488.6,372.708C13477.4,372.708 13468.4,373.882 13468.4,375.327C13468.4,376.773 13477.4,377.947 13488.6,377.947Z" style="fill-opacity:0.25;"/></g></g><g><g transform="matrix(0.44996,0,0,0.44996,-4803.64,-1278.04)"><path d="M10776.5,2908.92C10776.5,2905.86 10774,2903.37 10771,2903.37C10760.7,2903.37 10738.9,2903.37 10728.7,2903.37C10725.6,2903.37 10723.1,2905.86 10723.1,2908.92C10723.1,2912.62 10723.1,2917.47 10723.1,2921.17C10723.1,2924.23 10725.6,2926.72 10728.7,2926.72C10738.9,2926.72 10760.7,2926.72 10771,2926.72C10774,2926.72 10776.5,2924.23 10776.5,2921.17C10776.5,2917.47 10776.5,2912.62 10776.5,2908.92Z" style="fill:rgb(242,175,13);"/></g><g transform="matrix(0.44996,0,0,0.44996,-4803.64,-1278.04)"><path d="M10776.5,2915.24L10723.1,2915.24L10723.1,2921.17C10723.1,2924.23 10725.6,2926.72 10728.7,2926.72C10738.9,2926.72 10760.7,2926.72 10771,2926.72C10774,2926.72 10776.5,2924.23 10776.5,2921.17L10776.5,2915.24Z" style="fill:rgb(242,94,13);"/></g></g><g transform="matrix(0.763562,0,-1.89168e-16,0.763562,-10652.7,-251.237)"><path d="M14008.2,409.579L13992.4,409.579L13994.5,399.141L14010.3,399.141L14008.2,409.579Z" style="fill:rgb(57,57,57);"/></g></g></g></g></svg>