<?xml version="1.0" ?><!DOCTYPE svg  PUBLIC '-//W3C//DTD SVG 1.1//EN'  'http://www.w3.org/Graphics/SVG/1.1/DTD/svg11.dtd'><svg width="129px" height="129px" viewBox="-0.5 0 129 129" style="fill-rule:evenodd;clip-rule:evenodd;stroke-linejoin:round;stroke-miterlimit:2;" version="1.1" xml:space="preserve" xmlns="http://www.w3.org/2000/svg" xmlns:serif="http://www.serif.com/" xmlns:xlink="http://www.w3.org/1999/xlink"><g transform="matrix(1,0,0,1,0,-508)"><g id="knife-cutter" transform="matrix(1,0,0,1,0,508.75)"><rect height="128" style="fill:none;" width="128" x="0" y="0"/><g><g transform="matrix(1,0,0,1,-5714.49,-3130.42)"><path d="M5798.1,3178.91C5798.1,3178.91 5826.98,3150.04 5835.82,3141.2C5836.33,3140.68 5836.53,3139.93 5836.33,3139.24C5836.13,3138.54 5835.57,3138 5834.86,3137.84C5829.3,3136.53 5818.62,3134.03 5814.04,3132.96C5812.69,3132.64 5811.28,3133.05 5810.3,3134.03C5804.11,3140.22 5781.76,3162.57 5781.76,3162.57C5781.76,3162.57 5787.99,3164.48 5791.66,3165.6C5793.29,3166.1 5794.57,3167.38 5795.07,3169.01C5796.19,3172.68 5798.1,3178.91 5798.1,3178.91Z" style="fill:rgb(182,182,182);"/></g><g transform="matrix(1,0,0,1,-5714.49,-3130.42)"><path d="M5790.29,3165.18L5815.87,3139.6C5816.85,3138.62 5818.27,3138.22 5819.61,3138.53L5834.9,3142.11L5835.82,3141.2C5836.33,3140.68 5836.53,3139.93 5836.33,3139.24C5836.13,3138.54 5835.57,3138 5834.86,3137.84C5829.3,3136.53 5818.62,3134.03 5814.04,3132.96C5812.69,3132.64 5811.28,3133.05 5810.3,3134.03C5804.11,3140.22 5781.76,3162.57 5781.76,3162.57L5790.29,3165.18Z" style="fill:rgb(200,200,200);"/></g><g transform="matrix(1,0,0,1,-5714.49,-3130.42)"><path d="M5831.84,3137.13L5831.79,3137.17L5796.21,3172.75L5798.1,3178.91C5798.1,3178.91 5826.98,3150.04 5835.82,3141.2C5836.33,3140.68 5836.53,3139.93 5836.33,3139.24C5836.13,3138.54 5835.57,3138 5834.86,3137.84L5831.84,3137.13Z" style="fill:rgb(136,136,136);"/></g><g transform="matrix(0.265951,0.265951,-0.278653,0.278653,-1559.65,-2826.07)"><path d="M8432.24,2134.62L8432.24,2146.57L8457.38,2131.68C8459.87,2130.21 8460.64,2127.08 8459.09,2124.7C8457.55,2122.32 8454.26,2121.58 8451.77,2123.06L8432.24,2134.62Z" style="fill:rgb(136,136,136);"/></g><g transform="matrix(0.28115,0.28115,-0.294578,0.294578,-1664.48,-2977.63)"><path d="M8432.38,2134.86L8432.38,2146.16L8457.23,2131.45C8459.58,2130.05 8460.31,2127.09 8458.85,2124.84C8457.38,2122.59 8454.28,2121.9 8451.92,2123.29L8432.38,2134.86Z" style="fill:rgb(136,136,136);"/></g><g transform="matrix(1,0,0,1,-5714.49,-3130.42)"><path d="M5731.49,3252.41L5724.51,3245.43C5720.2,3241.12 5717.78,3235.28 5717.78,3229.18C5717.78,3223.09 5720.2,3217.24 5724.51,3212.93C5741.52,3195.93 5766.79,3170.66 5774.3,3163.14C5775.65,3161.8 5777.62,3161.3 5779.44,3161.86C5782.85,3162.91 5788.4,3164.61 5791.66,3165.6C5793.29,3166.1 5794.57,3167.38 5795.07,3169.01C5796.06,3172.27 5797.76,3177.82 5798.81,3181.23C5799.36,3183.05 5798.87,3185.02 5797.53,3186.37C5792.05,3191.84 5777.39,3206.51 5766.49,3217.41C5760.44,3223.46 5757.18,3231.75 5757.49,3240.29C5757.64,3244.45 5756.12,3248.65 5752.95,3251.82C5747.06,3257.71 5737.61,3257.91 5731.49,3252.41ZM5745.54,3236.38C5747.66,3238.5 5747.66,3241.95 5745.54,3244.08C5743.41,3246.21 5739.96,3246.21 5737.84,3244.08C5735.71,3241.95 5735.71,3238.5 5737.84,3236.38C5739.96,3234.25 5743.41,3234.25 5745.54,3236.38Z" style="fill:rgb(13,121,242);"/></g><g transform="matrix(1,0,0,1,-5714.49,-3130.42)"><path d="M5789.85,3165.05L5791.66,3165.6C5793.29,3166.1 5794.57,3167.38 5795.07,3169.01C5796.06,3172.27 5797.76,3177.82 5798.81,3181.23C5799.36,3183.05 5798.87,3185.02 5797.53,3186.37C5792.05,3191.84 5777.39,3206.51 5766.49,3217.41C5760.44,3223.46 5757.18,3231.75 5757.49,3240.29C5757.64,3244.45 5756.12,3248.65 5752.95,3251.82C5747.06,3257.71 5737.61,3257.91 5731.49,3252.41L5724.51,3245.43C5724.51,3245.43 5725.72,3246.64 5725.72,3246.64C5731.83,3252.14 5741.29,3251.93 5747.18,3246.05C5750.35,3242.88 5751.86,3238.68 5751.71,3234.52C5751.41,3225.97 5754.67,3217.68 5760.71,3211.64C5771.62,3200.73 5786.28,3186.07 5791.76,3180.6C5793.1,3179.25 5793.59,3177.27 5793.04,3175.46L5789.85,3165.05Z" style="fill:rgb(10,91,181);"/></g><g transform="matrix(1,0,0,1,-5714.49,-3130.42)"><path d="M5728.48,3249.4L5724.51,3245.43C5720.2,3241.12 5717.78,3235.28 5717.78,3229.18C5717.78,3223.09 5720.2,3217.24 5724.51,3212.93C5741.52,3195.93 5766.79,3170.66 5774.3,3163.14C5775.65,3161.8 5777.62,3161.3 5779.44,3161.86C5782.85,3162.91 5788.4,3164.61 5791.66,3165.6C5793.29,3166.1 5794.57,3167.38 5795.07,3169.01L5795.2,3169.44L5783.41,3165.83C5781.6,3165.28 5779.62,3165.77 5778.28,3167.11C5770.76,3174.63 5745.49,3199.9 5728.48,3216.91C5724.17,3221.22 5721.75,3227.06 5721.75,3233.16C5721.75,3239.25 5724.17,3245.09 5728.48,3249.4Z" style="fill:rgb(74,155,245);"/></g><g transform="matrix(1,0,0,1,-5714.49,-3130.42)"><path d="M5784.14,3186.88C5784.82,3186.2 5785.21,3185.28 5785.21,3184.31C5785.21,3183.35 5784.82,3182.42 5784.14,3181.74C5782.55,3180.15 5780.52,3178.12 5778.93,3176.53C5778.25,3175.85 5777.32,3175.46 5776.36,3175.46C5775.39,3175.46 5774.47,3175.85 5773.79,3176.53C5766.46,3183.85 5745.49,3204.83 5737.11,3213.2C5735.17,3215.14 5735.17,3218.29 5737.11,3220.23C5738.19,3221.3 5739.37,3222.48 5740.44,3223.56C5742.38,3225.5 5745.53,3225.5 5747.47,3223.56C5755.84,3215.18 5776.82,3194.21 5784.14,3186.88Z" style="fill:rgb(182,182,182);"/></g><g transform="matrix(1,0,0,1,-5714.49,-3130.42)"><path d="M5741.07,3224.09C5739.68,3222.14 5739.85,3219.43 5741.6,3217.68C5749.97,3209.31 5770.95,3188.33 5778.27,3181.01C5778.95,3180.33 5779.88,3179.95 5780.84,3179.95C5781.81,3179.95 5782.73,3180.33 5783.41,3181.01L5784.14,3181.74C5782.55,3180.15 5780.52,3178.12 5778.93,3176.53C5778.25,3175.85 5777.32,3175.46 5776.36,3175.46C5775.39,3175.46 5774.47,3175.85 5773.79,3176.53C5766.46,3183.85 5745.49,3204.83 5737.11,3213.2C5735.17,3215.14 5735.17,3218.29 5737.11,3220.23C5738.19,3221.3 5739.37,3222.48 5740.44,3223.56C5740.64,3223.75 5740.85,3223.93 5741.07,3224.09Z" style="fill:rgb(136,136,136);"/></g><g transform="matrix(1,0,0,1,-5714.49,-3130.42)"><path d="M5759.16,3211.86L5748.81,3201.51C5748.81,3201.51 5741.61,3208.71 5737.11,3213.2C5735.17,3215.14 5735.17,3218.29 5737.11,3220.23C5738.19,3221.3 5739.37,3222.48 5740.44,3223.56C5742.38,3225.5 5745.53,3225.5 5747.47,3223.56C5751.96,3219.06 5759.16,3211.86 5759.16,3211.86Z" style="fill:rgb(244,187,49);"/></g><g transform="matrix(1,0,0,1,-5714.49,-3130.42)"><path d="M5759.16,3211.86L5756.14,3208.83C5756.14,3208.83 5748.93,3216.03 5744.44,3220.53C5742.5,3222.47 5739.35,3222.47 5737.41,3220.53L5740.44,3223.56C5742.38,3225.5 5745.53,3225.5 5747.47,3223.56C5751.96,3219.06 5759.16,3211.86 5759.16,3211.86Z" style="fill:rgb(183,140,37);"/></g><g transform="matrix(1,0,0,1,-5714.49,-3130.42)"><path d="M5753.2,3205.89L5748.81,3201.51C5748.81,3201.51 5741.61,3208.71 5737.11,3213.2C5735.17,3215.14 5735.17,3218.29 5737.11,3220.23C5738.19,3221.3 5739.37,3222.48 5740.44,3223.56C5740.62,3223.74 5740.81,3223.9 5741.01,3224.05C5739.58,3222.1 5739.74,3219.35 5741.5,3217.59C5745.99,3213.1 5753.2,3205.89 5753.2,3205.89Z" style="fill:rgb(247,204,101);"/></g></g></g></g></svg>