<?xml version="1.0" ?><!DOCTYPE svg  PUBLIC '-//W3C//DTD SVG 1.1//EN'  'http://www.w3.org/Graphics/SVG/1.1/DTD/svg11.dtd'><svg width="129px" height="129px" viewBox="0 -0.5 129 129" style="fill-rule:evenodd;clip-rule:evenodd;stroke-linejoin:round;stroke-miterlimit:2;" version="1.1" xml:space="preserve" xmlns="http://www.w3.org/2000/svg" xmlns:serif="http://www.serif.com/" xmlns:xlink="http://www.w3.org/1999/xlink"><g transform="matrix(1,0,0,1,-157,0)"><g id="hammer-tools" transform="matrix(1,0,0,1,157.709,0)"><rect height="128" style="fill:none;" width="128" x="0" y="0"/><g><g transform="matrix(0.984248,0,0,0.984248,-182.589,-253.051)"><path d="M279.166,302.137L253.908,327.395L253.311,326.663C251.306,324.658 248.92,322.273 246.924,320.277C246.547,319.9 246.133,319.583 245.68,319.349L273.266,291.763L279.166,302.137Z" style="fill:rgb(51,51,51);"/></g><g transform="matrix(0.984248,0,0,0.984248,-182.589,-253.051)"><path d="M279.166,302.137L276.133,305.17L275.535,304.438C273.531,302.433 271.145,300.048 269.149,298.052C268.772,297.675 268.358,297.358 267.905,297.124L273.266,291.763L279.166,302.137Z" style="fill:rgb(38,38,38);"/></g><g transform="matrix(1,0,0,1,-2345.72,-2621.67)"><path d="M2407.87,2685.55L2413.11,2690.79L2413.04,2690.86L2412.45,2690.14C2412.45,2690.14 2407.87,2685.55 2407.87,2685.55ZM2433.33,2657.95L2406.8,2684.48L2406.17,2683.85C2405.8,2683.48 2405.39,2683.17 2404.94,2682.94L2432.1,2655.79L2433.33,2657.95Z" style="fill:rgb(102,102,102);"/></g><g transform="matrix(1,0,0,1,-2345.72,-2621.67)"><path d="M2436.5,2662.67L2437.9,2666L2413.04,2690.86L2412.45,2690.14C2410.48,2688.16 2408.13,2685.82 2406.17,2683.85C2405.8,2683.48 2405.39,2683.17 2404.94,2682.94L2407.47,2680.42L2412.45,2685.4L2413.04,2686.12L2436.5,2662.67Z" style="fill:rgb(38,38,38);"/></g><g transform="matrix(0.984248,0,0,0.984248,-182.589,-253.051)"><path d="M253.915,267.504C253.488,267.316 253.251,266.854 253.352,266.398C253.452,265.942 253.861,265.62 254.327,265.63C261.438,266.033 273.507,268.225 282.811,277.726C296.104,291.303 295.412,292.86 295.412,292.86C295.412,292.86 307.452,298.502 311.924,303.219C312.508,304.01 312.423,305.109 311.726,305.801C308.681,308.853 300.864,316.617 297.586,319.873C297.187,320.269 296.64,320.479 296.079,320.452C295.517,320.425 294.993,320.163 294.635,319.73C292.356,317.036 288.107,311.623 287.741,307.871C287.392,304.285 278.366,303.021 278.366,303.021L270.484,295.022C270.484,295.022 277.056,277.726 253.915,267.504Z" style="fill:rgb(158,158,158);"/></g><g transform="matrix(1,0,0,1,-2345.72,-2621.67)"><path d="M2420.43,2636.06C2418.4,2634.6 2415.96,2633.2 2413.05,2631.91C2412.63,2631.73 2412.4,2631.27 2412.49,2630.82C2412.59,2630.37 2412.99,2630.06 2413.45,2630.07C2420.45,2630.46 2432.33,2632.62 2441.49,2641.97C2454.57,2655.34 2453.89,2656.87 2453.89,2656.87C2453.89,2656.87 2465.74,2662.42 2470.14,2667.06C2470.72,2667.84 2470.64,2668.92 2469.95,2669.61C2469.6,2669.96 2469.18,2670.37 2468.72,2670.84C2463.61,2666.53 2453.89,2661.98 2453.89,2661.98C2453.89,2661.98 2454.57,2660.44 2441.49,2647.08C2434.93,2640.39 2426.99,2637.38 2420.43,2636.06Z" style="fill:rgb(182,182,182);"/></g><g transform="matrix(1,0,0,1,-2345.72,-2621.67)"><path d="M2430.18,2654.44L2437.12,2661.48C2437.12,2661.48 2446,2662.72 2446.34,2666.26C2446.7,2669.95 2450.89,2675.28 2453.13,2677.93C2453.48,2678.35 2454,2678.61 2454.55,2678.64C2455.1,2678.66 2455.64,2678.46 2456.03,2678.07C2458.84,2675.28 2465.03,2669.13 2468.56,2665.6C2469.16,2666.1 2469.69,2666.59 2470.14,2667.06C2470.72,2667.84 2470.64,2668.92 2469.95,2669.61C2466.95,2672.61 2459.26,2680.25 2456.03,2683.46C2455.64,2683.85 2455.1,2684.05 2454.55,2684.03C2454,2684 2453.48,2683.74 2453.13,2683.31C2450.89,2680.66 2446.7,2675.34 2446.34,2671.64C2446,2668.11 2437.12,2666.87 2437.12,2666.87L2429.36,2659C2429.36,2659 2430.04,2657.2 2430.18,2654.44ZM2430.02,2650.74C2429.22,2645 2425.51,2637.41 2413.05,2631.91C2412.63,2631.73 2412.4,2631.27 2412.49,2630.82C2412.59,2630.37 2412.99,2630.06 2413.45,2630.07C2415.58,2630.19 2418.15,2630.47 2420.95,2631.07C2430.28,2638.08 2430.62,2646.45 2430.02,2650.74Z" style="fill:rgb(118,118,118);"/></g><g transform="matrix(1,0,0,1,-2345.72,-2621.67)"><path d="M2412.45,2698.49C2414.76,2696.18 2414.76,2692.45 2412.45,2690.14C2410.48,2688.16 2408.13,2685.82 2406.17,2683.85C2403.89,2681.57 2400.2,2681.54 2397.88,2683.79C2389.71,2691.7 2372.03,2708.83 2367.83,2712.9C2367.22,2713.49 2366.59,2714.04 2365.92,2714.56C2363.01,2716.84 2354.42,2723.56 2350.05,2726.98C2349.39,2727.5 2348.98,2728.28 2348.93,2729.12C2348.88,2729.96 2349.19,2730.78 2349.78,2731.38C2352.84,2734.44 2357.09,2738.69 2358.86,2740.45C2359.38,2740.98 2360.1,2741.28 2360.84,2741.28C2363.18,2741.28 2368.42,2741.28 2371.05,2741.28C2372.01,2741.28 2372.91,2740.78 2373.42,2739.96C2374.22,2738.69 2375.43,2736.76 2376.34,2735.32C2377.14,2734.04 2378.09,2732.86 2379.15,2731.79C2384.81,2726.14 2403.92,2707.02 2412.45,2698.49ZM2365.9,2724.89C2368.08,2724.89 2369.85,2726.66 2369.85,2728.85C2369.85,2731.03 2368.08,2732.8 2365.9,2732.8C2363.72,2732.8 2361.94,2731.03 2361.94,2728.85C2361.94,2726.66 2363.72,2724.89 2365.9,2724.89Z" style="fill:rgb(244,118,50);"/></g><g transform="matrix(1,0,0,1,-2345.72,-2621.67)"><path d="M2350.05,2731.65L2350.05,2731.64C2354.42,2728.22 2363.01,2721.51 2365.92,2719.22C2366.59,2718.7 2367.22,2718.15 2367.83,2717.56C2372.03,2713.49 2389.71,2696.37 2397.88,2688.45C2400.2,2686.21 2403.89,2686.24 2406.17,2688.52C2408.13,2690.48 2410.48,2692.83 2412.45,2694.8C2413,2695.35 2413.42,2695.98 2413.71,2696.65C2414.63,2694.49 2414.21,2691.9 2412.45,2690.14C2410.48,2688.16 2408.13,2685.82 2406.17,2683.85C2403.89,2681.57 2400.2,2681.54 2397.88,2683.79C2389.71,2691.7 2372.03,2708.83 2367.83,2712.9C2367.22,2713.49 2366.59,2714.04 2365.92,2714.56C2363.01,2716.84 2354.42,2723.56 2350.05,2726.98C2349.39,2727.5 2348.98,2728.28 2348.93,2729.12C2348.88,2729.96 2349.19,2730.78 2349.78,2731.38L2350.05,2731.65Z" style="fill:rgb(247,152,101);"/></g><g transform="matrix(1,0,0,1,-2345.72,-2621.67)"><path d="M2413.36,2691.31C2413.12,2691.72 2412.81,2692.12 2412.45,2692.47C2403.92,2701.01 2384.81,2720.12 2379.15,2725.78C2378.09,2726.84 2377.14,2728.03 2376.34,2729.31C2375.43,2730.75 2374.22,2732.68 2373.42,2733.95C2372.91,2734.76 2372.01,2735.26 2371.05,2735.26C2368.42,2735.26 2363.18,2735.26 2360.84,2735.26C2360.1,2735.26 2359.38,2734.97 2358.86,2734.44L2350.81,2726.39L2350.05,2726.98C2349.39,2727.5 2348.98,2728.28 2348.93,2729.12C2348.88,2729.96 2349.19,2730.78 2349.78,2731.38C2352.84,2734.44 2357.09,2738.69 2358.86,2740.45C2359.38,2740.98 2360.1,2741.28 2360.84,2741.28C2363.18,2741.28 2368.42,2741.28 2371.05,2741.28C2372.01,2741.28 2372.91,2740.78 2373.42,2739.96C2374.22,2738.69 2375.43,2736.76 2376.34,2735.32C2377.14,2734.04 2378.09,2732.86 2379.15,2731.79C2384.81,2726.14 2403.92,2707.02 2412.45,2698.49C2414.4,2696.54 2414.7,2693.57 2413.36,2691.31Z" style="fill:rgb(183,88,37);"/></g></g></g></g></svg>