<?xml version="1.0" ?><!DOCTYPE svg  PUBLIC '-//W3C//DTD SVG 1.1//EN'  'http://www.w3.org/Graphics/SVG/1.1/DTD/svg11.dtd'><svg width="129px" height="129px" viewBox="0 0 129 129" style="fill-rule:evenodd;clip-rule:evenodd;stroke-linejoin:round;stroke-miterlimit:2;" version="1.1" xml:space="preserve" xmlns="http://www.w3.org/2000/svg" xmlns:serif="http://www.serif.com/" xmlns:xlink="http://www.w3.org/1999/xlink"><g transform="matrix(1,0,0,1,-157,-339)"><g id="measure" transform="matrix(1,0,0,1,157.709,339.167)"><rect height="128" style="fill:none;" width="128" x="0" y="0"/><g><g transform="matrix(1,0,0,1.07821,-5872.2,-3202.31)"><path d="M5911.99,3048.43L5909.65,3050.27C5906.24,3053.92 5904.88,3054.67 5895.89,3061.13C5890.55,3064.97 5886.18,3069.31 5884.12,3073.32C5882.92,3075.66 5882.47,3077.93 5882.84,3079.99C5883.23,3082.14 5884.49,3084.13 5886.94,3085.76C5890.51,3088.13 5893.97,3087.75 5896.96,3085.72C5900.82,3083.1 5903.87,3077.33 5904.86,3071.49C5905.98,3064.86 5909.69,3057.57 5911.27,3054.68C5912.71,3052.05 5911.95,3048.52 5911.99,3048.43ZM5904.19,3060.22C5902.83,3063.47 5901.52,3067.24 5900.91,3070.82C5900.24,3074.81 5898.49,3078.8 5896.08,3081.26C5894.13,3083.24 5891.7,3084.12 5889.16,3082.43C5887.79,3081.52 5887,3080.48 5886.78,3079.28C5886.55,3078 5886.93,3076.61 5887.68,3075.15C5889.51,3071.58 5893.48,3067.79 5898.23,3064.38C5900.93,3062.44 5902.81,3061.15 5904.19,3060.22L5904.19,3060.22Z" style="fill:rgb(76,76,76);"/></g><g transform="matrix(1,0,0,1.07821,-5872.2,-3202.31)"><path d="M5893.44,3087.25C5892.3,3087.02 5891.13,3086.54 5889.95,3085.76C5887.5,3084.13 5886.24,3082.14 5885.85,3079.99C5885.48,3077.93 5885.93,3075.66 5887.13,3073.32C5889.19,3069.31 5893.56,3064.97 5898.9,3061.13C5907.44,3055 5909.09,3054.01 5912.16,3050.8C5912.17,3049.48 5911.97,3048.48 5911.99,3048.43L5909.65,3050.27C5906.24,3053.92 5904.88,3054.67 5895.89,3061.13C5890.55,3064.97 5886.18,3069.31 5884.12,3073.32C5882.92,3075.66 5882.47,3077.93 5882.84,3079.99C5883.23,3082.14 5884.49,3084.13 5886.94,3085.76C5889.18,3087.24 5891.38,3087.65 5893.44,3087.25ZM5903.07,3063.07C5904.82,3061.83 5906.15,3060.92 5907.2,3060.22L5907.2,3060.22C5905.84,3063.47 5904.53,3067.24 5903.92,3070.82C5903.25,3074.81 5901.5,3078.8 5899.09,3081.26C5897.46,3082.92 5895.5,3083.8 5893.41,3083.06C5894.37,3082.72 5895.27,3082.09 5896.08,3081.26C5898.49,3078.8 5900.24,3074.81 5900.91,3070.82C5901.35,3068.25 5902.15,3065.58 5903.07,3063.07Z" style="fill:rgb(121,121,121);"/></g><g transform="matrix(1,0,0,1,-5872.2,-2960.84)"><path d="M5936.56,3017.08L5939.39,3019.91L5992.16,2967.14C5992.16,2967.14 5995.52,2970.5 5995.52,2970.5C5996.3,2971.28 5997.57,2971.28 5998.35,2970.5C5999.13,2969.72 5999.13,2968.45 5998.35,2967.67L5993.57,2962.9C5992.79,2962.12 5991.52,2962.12 5990.74,2962.9L5936.56,3017.08Z" style="fill:rgb(136,136,136);"/></g><g transform="matrix(1,0,0,1,-5872.2,-2960.84)"><path d="M5992.16,2967.14L5939.39,3019.91L5938.17,3018.7L5990.94,2965.92L5992.16,2967.14ZM5998.35,2967.67L5997.13,2966.46C5997.91,2967.24 5997.91,2968.5 5997.13,2969.28C5996.35,2970.07 5995.08,2970.07 5994.3,2969.28L5995.52,2970.5C5996.3,2971.28 5997.57,2971.28 5998.35,2970.5C5999.13,2969.72 5999.13,2968.45 5998.35,2967.67Z" style="fill:rgb(53,53,53);"/></g><g transform="matrix(1,0,0,1,-5872.2,-2960.84)"><path d="M5941.04,3021.39C5942.8,3019.63 5942.8,3016.77 5941.04,3015.01C5937.61,3011.59 5931.9,3005.87 5926.26,3000.23C5921.77,2995.74 5915.68,2993.22 5909.32,2993.22C5902.98,2993.22 5896.89,2995.74 5892.4,3000.23C5892.4,3000.23 5892.4,3000.23 5892.4,3000.23C5887.9,3004.72 5885.38,3010.81 5885.38,3017.16C5885.38,3023.51 5887.9,3029.6 5892.4,3034.09C5898.04,3039.73 5903.75,3045.45 5907.18,3048.87C5908.94,3050.63 5911.8,3050.63 5913.56,3048.87C5920.02,3042.41 5934.58,3027.85 5941.04,3021.39Z" style="fill:rgb(244,49,49);"/></g><g transform="matrix(1,0,0,1,-5872.2,-2960.84)"><path d="M5896.24,3037.94C5891.75,3033.45 5889.23,3027.36 5889.23,3021.01C5889.23,3014.66 5891.75,3008.57 5896.24,3004.08C5896.24,3004.08 5896.24,3004.08 5896.24,3004.08C5900.73,2999.59 5906.82,2997.07 5913.17,2997.07C5919.52,2997.07 5925.61,2999.59 5930.1,3004.08L5926.26,3000.23C5921.77,2995.74 5915.68,2993.22 5909.32,2993.22C5902.98,2993.22 5896.89,2995.74 5892.4,3000.23C5892.4,3000.23 5892.4,3000.23 5892.4,3000.23C5887.9,3004.72 5885.38,3010.81 5885.38,3017.16C5885.38,3023.51 5887.9,3029.6 5892.4,3034.09L5896.24,3037.94Z" style="fill:rgb(247,101,101);"/></g><g transform="matrix(1,0,0,1,-5872.2,-2960.84)"><path d="M5929.34,3021.22C5930.19,3020.37 5930.66,3019.22 5930.66,3018.03C5930.66,3016.83 5930.19,3015.68 5929.34,3014.84C5927.06,3012.56 5923.85,3009.34 5920.67,3006.17C5914.5,3000 5904.5,3000 5898.33,3006.17C5898.33,3006.17 5898.33,3006.17 5898.33,3006.17C5892.16,3012.34 5892.16,3022.34 5898.33,3028.51C5901.51,3031.68 5904.72,3034.9 5907,3037.18C5907.85,3038.02 5908.99,3038.5 5910.19,3038.5C5911.39,3038.5 5912.53,3038.02 5913.38,3037.18C5917.63,3032.93 5925.09,3025.46 5929.34,3021.22Z" style="fill:rgb(244,187,49);"/></g><g transform="matrix(1,0,0,1,-5872.2,-2960.84)"><path d="M5929.34,3021.22C5930.19,3020.37 5930.66,3019.22 5930.66,3018.03C5930.66,3016.83 5930.19,3015.68 5929.34,3014.84C5928.72,3014.21 5928.25,3013.75 5928.25,3013.75L5905.91,3036.09C5905.91,3036.09 5906.38,3036.55 5907,3037.18C5907.85,3038.02 5908.99,3038.5 5910.19,3038.5C5911.39,3038.5 5912.53,3038.02 5913.38,3037.18C5917.63,3032.93 5925.09,3025.46 5929.34,3021.22Z" style="fill:rgb(183,140,37);"/></g><g transform="matrix(1,0,0,1,-5872.2,-2960.84)"><path d="M5901.88,3032.06C5895.72,3025.89 5895.72,3015.89 5901.88,3009.72C5901.88,3009.72 5901.89,3009.72 5901.89,3009.72C5908.05,3003.55 5918.06,3003.55 5924.22,3009.72L5920.67,3006.17C5914.5,3000 5904.5,3000 5898.33,3006.17C5898.33,3006.17 5898.33,3006.17 5898.33,3006.17C5892.16,3012.34 5892.16,3022.34 5898.33,3028.51L5901.88,3032.06Z" style="fill:rgb(247,204,101);"/></g><g transform="matrix(1,0,0,1,-5872.2,-2960.84)"><path d="M5906.02,3010.99L5901.57,3015.44C5900.13,3016.88 5900.13,3019.22 5901.57,3020.66C5903,3022.09 5905.19,3024.28 5905.19,3024.28C5905.97,3025.06 5907.24,3025.06 5908.02,3024.28C5908.8,3023.5 5908.8,3022.23 5908.02,3021.45L5904.62,3018.05L5905.57,3017.1L5908.97,3020.51C5909.75,3021.28 5911.02,3021.28 5911.8,3020.51C5912.58,3019.72 5912.58,3018.46 5911.8,3017.68L5908.39,3014.27L5908.85,3013.82C5909.12,3013.55 5909.56,3013.55 5909.84,3013.82C5909.84,3013.82 5912.74,3016.73 5912.74,3016.73C5913.53,3017.51 5914.79,3017.51 5915.57,3016.73C5916.35,3015.95 5916.35,3014.68 5915.57,3013.9L5912.66,3010.99C5910.83,3009.16 5907.85,3009.16 5906.02,3010.99Z" style="fill:rgb(71,71,71);"/></g><g transform="matrix(1,0,0,1,-5872.2,-2960.84)"><path d="M5906.77,3020.21C5907.55,3020.99 5907.55,3022.25 5906.77,3023.03C5905.99,3023.82 5904.72,3023.82 5903.94,3023.03L5905.19,3024.28C5905.97,3025.06 5907.24,3025.06 5908.02,3024.28C5908.8,3023.5 5908.8,3022.23 5908.02,3021.45L5906.77,3020.21ZM5904.62,3018.05L5905.57,3017.1L5908.97,3020.51C5909.75,3021.28 5911.02,3021.28 5911.8,3020.51C5912.58,3019.72 5912.58,3018.46 5911.8,3017.68L5910.51,3016.39L5910.55,3016.43C5911.33,3017.21 5911.33,3018.48 5910.55,3019.26C5909.77,3020.04 5908.5,3020.04 5907.72,3019.26L5904.32,3015.86L5903.37,3016.8L5904.62,3018.05ZM5908.39,3014.27L5908.85,3013.82C5909.12,3013.55 5909.56,3013.55 5909.84,3013.82C5909.84,3013.82 5912.74,3016.73 5912.74,3016.73C5913.53,3017.51 5914.79,3017.51 5915.57,3016.73C5916.35,3015.95 5916.35,3014.68 5915.57,3013.9L5914.32,3012.65C5915.11,3013.43 5915.11,3014.7 5914.32,3015.48C5913.55,3016.26 5912.28,3016.26 5911.5,3015.48C5911.5,3015.48 5908.59,3012.57 5908.59,3012.57C5908.32,3012.3 5907.87,3012.3 5907.6,3012.57L5907.15,3013.03L5908.39,3014.27Z" style="fill:rgb(53,53,53);fill-opacity:0.1;"/></g><g transform="matrix(1,0,0,1,-5872.2,-2960.84)"><path d="M5901.57,3020.66C5903,3022.09 5903.16,3022.25 5903.16,3022.25C5901.72,3020.81 5901.72,3018.47 5903.16,3017.03L5907.61,3012.58C5909.44,3010.74 5912.42,3010.74 5914.25,3012.58L5912.66,3010.99C5910.83,3009.16 5907.85,3009.16 5906.02,3010.99L5901.57,3015.44C5900.13,3016.88 5900.13,3019.22 5901.57,3020.66Z" style="fill:rgb(117,117,117);"/></g><g transform="matrix(1,0,0,1,-5872.2,-2960.84)"><path d="M5941.04,3021.39C5942.8,3019.63 5942.8,3016.77 5941.04,3015.01C5939.53,3013.5 5938.05,3012.03 5938.05,3012.03L5904.19,3045.89C5904.19,3045.89 5905.67,3047.36 5907.18,3048.87C5908.94,3050.63 5911.8,3050.63 5913.56,3048.87C5920.02,3042.41 5934.58,3027.85 5941.04,3021.39Z" style="fill:rgb(183,37,37);"/></g></g></g></g></svg>