<?xml version="1.0" ?><!DOCTYPE svg  PUBLIC '-//W3C//DTD SVG 1.1//EN'  'http://www.w3.org/Graphics/SVG/1.1/DTD/svg11.dtd'><svg width="129px" height="129px" viewBox="0 0 129 129" style="fill-rule:evenodd;clip-rule:evenodd;stroke-linejoin:round;stroke-miterlimit:2;" version="1.1" xml:space="preserve" xmlns="http://www.w3.org/2000/svg" xmlns:serif="http://www.serif.com/" xmlns:xlink="http://www.w3.org/1999/xlink"><g transform="matrix(1,0,0,1,-315,-169)"><g id="bolt-screw" transform="matrix(1,0,0,1,315.418,169.583)"><rect height="128" style="fill:none;" width="128" x="0" y="0"/><g><g transform="matrix(1,0,0,1,-2503.43,-2791.25)"><path d="M2532.64,2866.19L2532.64,2876.45C2532.64,2877.56 2531.75,2878.45 2530.64,2878.45C2529.54,2878.45 2528.64,2877.56 2528.64,2876.45L2528.64,2870.19L2511.48,2887.36C2508.11,2890.73 2506.21,2895.31 2506.21,2900.08L2506.21,2908.11C2506.21,2908.11 2510.26,2908.07 2514.19,2908.04C2518.91,2908 2523.43,2906.11 2526.77,2902.77L2528.64,2900.89L2528.64,2884C2528.64,2882.9 2529.54,2882 2530.64,2882C2531.75,2882 2532.64,2882.9 2532.64,2884L2532.64,2896.89L2541.82,2887.71L2541.82,2857.01L2532.64,2866.19Z" style="fill:rgb(158,158,158);"/></g><g transform="matrix(1,0,0,1,-2503.43,-2791.25)"><path d="M2574.79,2824.04C2574.79,2824.04 2527.55,2871.29 2511.48,2887.36C2508.11,2890.73 2506.21,2895.31 2506.21,2900.08L2506.21,2908.11C2506.21,2908.11 2510.26,2908.07 2514.19,2908.04C2518.91,2908 2523.43,2906.11 2526.77,2902.77C2542.75,2886.79 2589.98,2839.55 2589.98,2839.55L2574.79,2824.04Z" style="fill:rgb(158,158,158);"/></g><g transform="matrix(1,0,0,1,-2503.43,-2791.25)"><path d="M2574.72,2824.12L2582.46,2832.03C2582.46,2832.03 2535.23,2879.27 2519.25,2895.25C2515.91,2898.59 2511.39,2900.48 2506.67,2900.52L2506.21,2900.52L2506.21,2908.11C2506.21,2908.11 2510.26,2908.07 2514.19,2908.04C2518.91,2908 2523.43,2906.11 2526.77,2902.77C2542.75,2886.79 2589.98,2839.55 2589.98,2839.55L2574.79,2824.04L2574.72,2824.12Z" style="fill:rgb(118,118,118);"/></g><g transform="matrix(1,0,0,1,-2503.43,-2791.25)"><path d="M2603.81,2854.15L2612.11,2849.8L2564.38,2802.08C2564.38,2802.08 2560.55,2808.25 2558.26,2811.94C2557.27,2813.52 2557.51,2815.57 2558.82,2816.88C2564.84,2822.9 2580.89,2838.95 2580.89,2838.95L2590.98,2848.6L2603.81,2854.15Z" style="fill:rgb(158,158,158);"/></g><g transform="matrix(1,0,0,1,-2503.43,-2791.25)"><path d="M2563.45,2812.26C2562.13,2810.95 2560.09,2808.98 2560.09,2808.98C2559.44,2810.03 2558.8,2811.06 2558.26,2811.94C2557.27,2813.52 2557.51,2815.57 2558.82,2816.88C2564.84,2822.9 2580.89,2838.95 2580.89,2838.95L2590.98,2848.6L2603.81,2854.15L2612.11,2849.8L2610.66,2848.36L2603.81,2851.95L2595.61,2843.97L2585.51,2834.33C2585.51,2834.33 2569.47,2818.28 2563.45,2812.26Z" style="fill:rgb(118,118,118);"/></g><g transform="matrix(1,0,0,1,-2503.43,-2791.25)"><path d="M2593.43,2855.03C2593.43,2855.03 2567.22,2881.25 2555.74,2892.73C2552.36,2896.1 2550.47,2900.68 2550.47,2905.46C2550.47,2906.97 2550.47,2908.11 2550.47,2908.11C2550.47,2908.11 2551.61,2908.1 2553.12,2908.09C2557.85,2908.05 2562.36,2906.15 2565.7,2902.81C2577.2,2891.31 2603.75,2864.76 2603.75,2864.76L2593.43,2855.03Z" style="fill:rgb(158,158,158);"/></g><g transform="matrix(1,0,0,1,-2503.43,-2791.25)"><path d="M2598.9,2860.19L2560.98,2898.1C2558.17,2900.91 2554.51,2902.7 2550.61,2903.22C2550.51,2903.96 2550.47,2904.7 2550.47,2905.46C2550.47,2906.97 2550.47,2908.11 2550.47,2908.11C2550.47,2908.11 2551.61,2908.1 2553.12,2908.09C2557.85,2908.05 2562.36,2906.15 2565.7,2902.81C2577.2,2891.31 2603.75,2864.76 2603.75,2864.76L2598.9,2860.19Z" style="fill:rgb(118,118,118);"/></g><g transform="matrix(1,0,0,1,-2503.43,-2791.25)"><path d="M2608.78,2876.21L2619.61,2870.04L2588.45,2838.88C2588.45,2838.88 2585.63,2843.01 2583.66,2845.9C2582.58,2847.49 2582.78,2849.62 2584.14,2850.98C2588.03,2854.88 2595.4,2862.24 2595.4,2862.24L2608.78,2876.21Z" style="fill:rgb(158,158,158);"/></g><g transform="matrix(1,0,0,1,-2503.43,-2791.25)"><path d="M2589.22,2839.65L2588.45,2838.88C2588.45,2838.88 2585.63,2843.01 2583.66,2845.9C2582.58,2847.49 2582.78,2849.62 2584.14,2850.98C2588.03,2854.88 2595.4,2862.24 2595.4,2862.24L2608.78,2876.21L2619.61,2870.04L2618.49,2868.93L2612.84,2872.14L2599.46,2858.17C2599.46,2858.17 2592.1,2850.81 2588.21,2846.92C2586.85,2845.56 2586.65,2843.42 2587.73,2841.83L2589.22,2839.65Z" style="fill:rgb(118,118,118);"/></g><g transform="matrix(1,0,0,0.761242,-614.219,-314.119)"><path d="M678.972,504.724L682.972,499.47L682.972,475.297C682.972,473.847 682.076,472.67 680.972,472.67C679.868,472.67 678.972,473.847 678.972,475.297L678.972,504.724Z" style="fill:rgb(94,94,94);"/></g><g transform="matrix(1,0,0,0.302104,-627.399,-95.6222)"><path d="M682.972,477.317L678.972,490.558L678.972,534.538C678.972,538.191 679.868,541.158 680.972,541.158C682.076,541.158 682.972,538.191 682.972,534.538L682.972,477.317Z" style="fill:rgb(94,94,94);"/></g><g transform="matrix(1,0,0,0.622575,-627.399,-229.868)"><path d="M678.972,502.986L682.972,496.561L682.972,475.297C682.972,473.524 682.076,472.085 680.972,472.085C679.868,472.085 678.972,473.524 678.972,475.297L678.972,502.986Z" style="fill:rgb(94,94,94);"/></g><g transform="matrix(1,0,0,1.22877,-640.58,-523.558)"><path d="M682.972,501.33L678.972,504.585L678.972,479.6L682.972,476.345L682.972,501.33Z" style="fill:rgb(94,94,94);"/></g><g transform="matrix(1,0,0,0.39911,-653.761,-116.396)"><path d="M682.972,479.403L678.972,489.426L678.972,523.102C678.972,525.868 679.868,528.113 680.972,528.113C682.076,528.113 682.972,525.868 682.972,523.102L682.972,479.403Z" style="fill:rgb(94,94,94);"/></g><g transform="matrix(1,0,0,0.576441,-653.761,-181.232)"><path d="M678.972,504.6L682.972,497.661L682.972,475.297C682.972,473.382 682.076,471.828 680.972,471.828C679.868,471.828 678.972,473.382 678.972,475.297L678.972,504.6Z" style="fill:rgb(94,94,94);"/></g><g transform="matrix(0.671634,4.30149e-15,9.23179e-15,0.76995,-370.13,-300.792)"><path d="M678.113,505.623L683.95,500.532L683.95,489.607C683.95,488.173 682.616,487.009 680.972,487.009C679.329,487.009 677.994,488.173 677.994,489.607L677.994,505.111L678.113,505.623Z" style="fill:rgb(94,94,94);"/></g><g transform="matrix(0.671634,0,0,0.2004,-383.409,-17.5159)"><path d="M683.95,475.761L677.994,495.721L677.994,537.825C677.994,543.333 679.329,547.805 680.972,547.805C682.616,547.805 683.95,543.333 683.95,537.825L683.95,475.761Z" style="fill:rgb(94,94,94);"/></g><g transform="matrix(0.671634,0,0,0.416575,-383.409,-108.078)"><path d="M677.994,503.99L683.95,494.387L683.95,475.297C683.95,472.648 682.616,470.496 680.972,470.496C679.329,470.496 677.994,472.648 677.994,475.297L677.994,503.99Z" style="fill:rgb(94,94,94);"/></g><g transform="matrix(0.671634,0,0,0.825281,-396.688,-302.183)"><path d="M677.994,504.675C679.938,503.77 681.732,502.644 683.341,501.334L683.95,500.839L683.95,476.551L677.994,481.397L677.994,504.675Z" style="fill:rgb(94,94,94);"/></g><g transform="matrix(1,0,0,1,-2503.43,-2791.25)"><path d="M2606.42,2877.23L2589.93,2893.72C2586.55,2897.1 2584.66,2901.67 2584.66,2906.45C2584.66,2907.43 2584.66,2908.11 2584.66,2908.11L2586.32,2908.11C2588.41,2908.11 2590.46,2907.74 2592.39,2907.03L2596.39,2905.02C2597.33,2904.39 2598.22,2903.66 2599.04,2902.84L2615.53,2886.35L2606.42,2877.23Z" style="fill:rgb(158,158,158);"/></g><g transform="matrix(1,0,0,1,-2503.43,-2791.25)"><path d="M2606.42,2877.23L2611.01,2881.82L2594.52,2898.31C2593.7,2899.13 2592.81,2899.86 2591.86,2900.5L2587.86,2902.51C2586.91,2902.86 2585.93,2903.12 2584.93,2903.3C2584.75,2904.33 2584.66,2905.39 2584.66,2906.45C2584.66,2907.43 2584.66,2908.11 2584.66,2908.11L2586.32,2908.11C2588.41,2908.11 2590.46,2907.74 2592.39,2907.03L2596.39,2905.02C2597.33,2904.39 2598.22,2903.66 2599.04,2902.84L2615.53,2886.35L2606.42,2877.23Z" style="fill:rgb(118,118,118);"/></g><g transform="matrix(1,0,0,1,-2503.43,-2791.25)"><path d="M2628.65,2890.6L2602.16,2864.11C2602.16,2864.11 2600.38,2867.48 2599.07,2869.96C2598.25,2871.51 2598.54,2873.42 2599.78,2874.66C2604.06,2878.95 2613.82,2888.7 2618.1,2892.99C2619.34,2894.23 2621.25,2894.51 2622.8,2893.69C2625.29,2892.38 2628.65,2890.6 2628.65,2890.6Z" style="fill:rgb(158,158,158);"/></g><g transform="matrix(1,0,0,1,-2503.43,-2791.25)"><path d="M2603.21,2865.16L2602.16,2864.11C2602.16,2864.11 2600.38,2867.48 2599.07,2869.96C2598.25,2871.51 2598.54,2873.42 2599.78,2874.66C2604.06,2878.95 2613.82,2888.7 2618.1,2892.99C2619.34,2894.23 2621.25,2894.51 2622.8,2893.69C2625.29,2892.38 2628.65,2890.6 2628.65,2890.6L2627.6,2889.55L2626.21,2890.29C2624.66,2891.11 2622.75,2890.82 2621.51,2889.58C2617.22,2885.29 2607.47,2875.54 2603.18,2871.25C2601.94,2870.01 2601.66,2868.11 2602.48,2866.55L2603.21,2865.16Z" style="fill:rgb(118,118,118);"/></g><g transform="matrix(0.579286,0,0,0.439051,-293.799,-111.838)"><path d="M677.52,501.886L684.425,492.775L684.425,475.297C684.425,472.783 682.878,470.742 680.972,470.742C679.067,470.742 677.52,472.783 677.52,475.297L677.52,501.886Z" style="fill:rgb(94,94,94);"/></g><g transform="matrix(0.579286,0,0,0.195292,-303.523,3.13105)"><path d="M684.425,475.571L677.52,496.053L677.52,535.771C677.52,541.424 679.067,546.013 680.972,546.013C682.878,546.013 684.425,541.424 684.425,535.771L684.425,475.571Z" style="fill:rgb(94,94,94);"/></g><g transform="matrix(0.579286,0,0,0.294445,-303.523,-31.5526)"><path d="M677.52,500.361C679.96,498.71 682.277,496.399 684.425,493.538L684.425,475.297C684.425,471.548 682.878,468.505 680.972,468.505C679.067,468.505 677.52,471.548 677.52,475.297L677.52,500.361Z" style="fill:rgb(94,94,94);"/></g></g></g></g></svg>