<?xml version="1.0" ?><!DOCTYPE svg  PUBLIC '-//W3C//DTD SVG 1.1//EN'  'http://www.w3.org/Graphics/SVG/1.1/DTD/svg11.dtd'><svg width="129px" height="129px" viewBox="0 0 129 129" style="fill-rule:evenodd;clip-rule:evenodd;stroke-linejoin:round;stroke-miterlimit:2;" version="1.1" xml:space="preserve" xmlns="http://www.w3.org/2000/svg" xmlns:serif="http://www.serif.com/" xmlns:xlink="http://www.w3.org/1999/xlink"><g transform="matrix(1,0,0,1,-630,-339)"><g id="scissors" transform="matrix(1,0,0,1,630.835,339.167)"><rect height="128" style="fill:none;" width="128" x="0" y="0"/><g transform="matrix(1,0,0,1,-2.27315,2.27315)"><g transform="matrix(1,0,0,1,-6345.33,-2960.84)"><path d="M6405.94,3008.29L6405.94,3008.29C6405.94,3008.29 6384.73,3063.27 6378.08,3080.48C6378.01,3080.67 6378.1,3080.89 6378.29,3080.98C6378.48,3081.07 6378.7,3081 6378.81,3080.82C6383.24,3072.98 6392.52,3056.58 6401.66,3040.43C6402.29,3039.3 6403.4,3029.39 6404.04,3028.27C6410.63,3016.62 6417.1,3005.18 6422.15,2996.26C6427.98,2985.95 6405.94,3008.29 6405.94,3008.29Z" style="fill:rgb(136,136,136);"/></g><g transform="matrix(1,0,0,1,-6345.33,-2960.84)"><path d="M6387.7,3065.09L6408.6,3010.94L6408.6,3010.94C6408.6,3010.94 6414.99,3004.47 6419.98,3000.1L6422.15,2996.26C6427.98,2985.95 6405.94,3008.29 6405.94,3008.29L6405.94,3008.29C6405.94,3008.29 6384.73,3063.27 6378.08,3080.48C6378.01,3080.67 6378.1,3080.89 6378.29,3080.98C6378.48,3081.07 6378.7,3081 6378.81,3080.82L6387.7,3065.09Z" style="fill:rgb(175,175,175);"/></g><g transform="matrix(1,0,0,1,-6345.33,-2960.84)"><path d="M6426.2,3028.54L6426.2,3028.54C6426.2,3028.54 6371.22,3049.76 6354.01,3056.4C6353.82,3056.48 6353.59,3056.39 6353.51,3056.2C6353.41,3056.01 6353.49,3055.78 6353.67,3055.68C6361.51,3051.25 6377.91,3041.97 6394.06,3032.83C6395.18,3032.19 6405.09,3031.08 6406.22,3030.45C6417.87,3023.86 6429.31,3017.38 6438.23,3012.34C6448.53,3006.51 6426.2,3028.54 6426.2,3028.54Z" style="fill:rgb(136,136,136);"/></g><g transform="matrix(1,0,0,1,-6345.33,-2960.84)"><path d="M6370.87,3049.89L6354.01,3056.4C6353.82,3056.48 6353.59,3056.39 6353.51,3056.2C6353.41,3056.01 6353.49,3055.78 6353.67,3055.68C6361.51,3051.25 6377.91,3041.97 6394.06,3032.83C6395.18,3032.19 6405.09,3031.08 6406.22,3030.45C6417.87,3023.86 6429.31,3017.38 6438.23,3012.34C6442.83,3009.74 6440.92,3012.68 6437.41,3016.75L6406.22,3034.39C6405.09,3035.03 6395.18,3036.14 6394.06,3036.78L6370.87,3049.89Z" style="fill:rgb(175,175,175);"/></g><g transform="matrix(1,0,0,1,-6345.33,-2960.84)"><path d="M6468.75,3009.86C6465.07,3003.18 6452.17,3003.22 6439.95,3009.95C6427.74,3016.68 6420.81,3027.56 6424.49,3034.24C6428.17,3040.91 6441.07,3040.87 6453.28,3034.14C6465.49,3027.41 6472.42,3016.53 6468.75,3009.86ZM6458.89,3015.29C6456.85,3011.59 6449.69,3011.61 6442.93,3015.34C6436.15,3019.07 6432.31,3025.1 6434.35,3028.8C6436.39,3032.51 6443.54,3032.48 6450.31,3028.75C6457.08,3025.02 6460.92,3018.99 6458.89,3015.29Z" style="fill:rgb(13,121,242);"/></g><g transform="matrix(1,0,0,1,-6345.33,-2960.84)"><path d="M6465.03,3006.4C6468.1,3013.11 6461.21,3023.61 6449.31,3030.17C6439.81,3035.4 6429.9,3036.59 6424.23,3033.72C6424.31,3033.9 6424.4,3034.07 6424.49,3034.24C6428.17,3040.91 6441.07,3040.87 6453.28,3034.14C6465.49,3027.41 6472.42,3016.53 6468.75,3009.86C6467.93,3008.37 6466.65,3007.22 6465.03,3006.4Z" style="fill:rgb(35,108,189);"/></g><g transform="matrix(1,0,0,1,-6345.33,-2960.84)"><path d="M6428.87,3038C6427.19,3033.32 6430,3027 6435.77,3021.44C6437.36,3019.22 6439.84,3017.04 6442.93,3015.34C6444.64,3014.4 6446.38,3013.69 6448.06,3013.22C6456.15,3009.55 6464.17,3008.8 6469.25,3010.97C6469.11,3010.59 6468.94,3010.22 6468.75,3009.86C6465.07,3003.18 6452.17,3003.22 6439.95,3009.95C6427.74,3016.68 6420.81,3027.56 6424.49,3034.24C6425.42,3035.92 6426.93,3037.18 6428.87,3038Z" style="fill:rgb(92,165,246);"/></g><g transform="matrix(1,0,0,1,-6345.33,-2960.84)"><path d="M6423.98,2965.1C6430.66,2968.77 6430.62,2981.67 6423.89,2993.89C6417.16,3006.1 6406.28,3013.03 6399.61,3009.35C6392.93,3005.67 6392.97,2992.77 6399.7,2980.56C6406.43,2968.35 6417.31,2961.42 6423.98,2965.1ZM6418.55,2974.96C6422.25,2976.99 6422.23,2984.15 6418.5,2990.92C6414.77,2997.69 6408.74,3001.53 6405.04,2999.49C6401.34,2997.45 6401.36,2990.3 6405.09,2983.53C6408.82,2976.76 6414.85,2972.92 6418.55,2974.96Z" style="fill:rgb(13,121,242);"/></g><g transform="matrix(1,0,0,1,-6345.33,-2960.84)"><path d="M6422.82,2964.58C6423.22,2964.72 6423.61,2964.89 6423.98,2965.1C6430.66,2968.77 6430.62,2981.67 6423.89,2993.89C6417.16,3006.1 6406.28,3013.03 6399.61,3009.35C6398.59,3008.79 6397.73,3008.02 6397.03,3007.07C6403.75,3009.43 6413.8,3002.61 6420.15,2991.08C6425.85,2980.73 6426.75,2969.88 6422.82,2964.58Z" style="fill:rgb(35,108,189);"/></g><g transform="matrix(1,0,0,1,-6345.33,-2960.84)"><path d="M6400.44,3009.74C6400.15,3009.63 6399.88,3009.5 6399.61,3009.35C6392.93,3005.67 6392.97,2992.77 6399.7,2980.56C6406.43,2968.35 6417.31,2961.42 6423.98,2965.1C6425.57,2965.97 6426.78,2967.37 6427.61,2969.16C6420.89,2966.44 6410.61,2973.3 6404.16,2985.02C6399.03,2994.32 6397.79,3004.03 6400.44,3009.74Z" style="fill:rgb(92,165,246);"/></g></g></g></g></svg>