<?xml version="1.0" ?><!DOCTYPE svg  PUBLIC '-//W3C//DTD SVG 1.1//EN'  'http://www.w3.org/Graphics/SVG/1.1/DTD/svg11.dtd'><svg width="129px" height="129px" viewBox="0 -0.5 129 129" style="fill-rule:evenodd;clip-rule:evenodd;stroke-linejoin:round;stroke-miterlimit:2;" version="1.1" xml:space="preserve" xmlns="http://www.w3.org/2000/svg" xmlns:serif="http://www.serif.com/" xmlns:xlink="http://www.w3.org/1999/xlink"><g transform="matrix(1,0,0,1,-473,0)"><g id="screwdriver-tools-" transform="matrix(1,0,0,1,473.126,0)"><rect height="128" style="fill:none;" width="128" x="0" y="0"/><g><g transform="matrix(1,0,0,1,-2661.14,-2621.67)"><path d="M2708.54,2699.45L2662.47,2745.52C2661.68,2746.3 2661.68,2747.57 2662.47,2748.35C2663.25,2749.13 2664.51,2749.13 2665.29,2748.35L2711.37,2702.27C2712.15,2701.49 2712.15,2700.23 2711.37,2699.45C2710.59,2698.66 2709.32,2698.66 2708.54,2699.45Z" style="fill:rgb(128,128,128);"/></g><g transform="matrix(1,0,0,1,-2661.14,-2621.67)"><path d="M2710.64,2698.98C2710.9,2699.69 2710.74,2700.52 2710.18,2701.08L2664.1,2747.16C2663.54,2747.72 2662.71,2747.88 2662,2747.62C2662.1,2747.89 2662.25,2748.13 2662.47,2748.35C2663.25,2749.13 2664.51,2749.13 2665.29,2748.35L2711.37,2702.27C2712.15,2701.49 2712.15,2700.23 2711.37,2699.45C2711.15,2699.23 2710.91,2699.08 2710.64,2698.98Z" style="fill:rgb(96,96,96);"/></g><g transform="matrix(1,0,0,1,-2661.14,-2621.67)"><path d="M2784.57,2642.91C2785.52,2641.96 2786.05,2640.68 2786.05,2639.34C2786.05,2638 2785.52,2636.72 2784.57,2635.77C2781.76,2632.96 2777.86,2629.05 2775.04,2626.24C2774.1,2625.29 2772.81,2624.76 2771.47,2624.76C2770.14,2624.76 2768.85,2625.29 2767.91,2626.24C2757.3,2636.84 2726.21,2667.94 2717.75,2676.39C2716.57,2677.58 2716.57,2679.5 2717.75,2680.68C2720.95,2683.88 2726.93,2689.86 2730.13,2693.06C2731.32,2694.24 2733.23,2694.24 2734.42,2693.06C2742.87,2684.61 2773.97,2653.51 2784.57,2642.91Z" style="fill:rgb(244,187,49);"/></g><g transform="matrix(1,0,0,1,-2661.14,-2621.67)"><path d="M2775.04,2626.24L2779.49,2630.68C2780.43,2631.63 2780.96,2632.91 2780.96,2634.25C2780.96,2635.59 2780.43,2636.88 2779.49,2637.82C2768.88,2648.42 2737.79,2679.52 2729.33,2687.97C2728.15,2689.16 2726.23,2689.16 2725.05,2687.97L2730.13,2693.06C2731.32,2694.24 2733.23,2694.24 2734.42,2693.06C2742.87,2684.61 2773.97,2653.51 2784.57,2642.91C2785.52,2641.96 2786.05,2640.68 2786.05,2639.34C2786.05,2638 2785.52,2636.72 2784.57,2635.77L2775.04,2626.24Z" style="fill:rgb(181,131,10);"/></g><g transform="matrix(1,0,0,1,-2661.14,-2621.67)"><path d="M2718.78,2681.7L2711.33,2689.15L2721.66,2699.49L2729.11,2692.04L2718.78,2681.7Z" style="fill:rgb(102,102,102);"/></g><g transform="matrix(1,0,0,1,-2661.14,-2621.67)"><path d="M2724.35,2687.26L2716.79,2694.61L2721.66,2699.49L2729.11,2692.04L2724.35,2687.26Z" style="fill:rgb(51,51,51);"/></g><g transform="matrix(1,0,0,1,-2661.14,-2621.67)"><path d="M2721.12,2706.36C2722.1,2705.38 2722.65,2704.04 2722.65,2702.65C2722.65,2701.26 2722.1,2699.93 2721.12,2698.94C2718.36,2696.19 2714.62,2692.45 2711.87,2689.7C2710.89,2688.71 2709.55,2688.16 2708.16,2688.16C2706.77,2688.16 2705.43,2688.71 2704.45,2689.7C2702.58,2691.56 2700.71,2693.43 2700.71,2693.43L2717.38,2710.1C2717.38,2710.1 2719.25,2708.23 2721.12,2706.36Z" style="fill:rgb(244,118,50);"/></g><g transform="matrix(1,0,0,1,-2661.14,-2621.67)"><path d="M2721.12,2706.36C2722.1,2705.38 2722.65,2704.04 2722.65,2702.65C2722.65,2701.26 2722.1,2699.93 2721.12,2698.94C2719.82,2697.65 2718.31,2696.13 2716.78,2694.61L2709.3,2702.03L2717.38,2710.1C2717.38,2710.1 2719.25,2708.23 2721.12,2706.36Z" style="fill:rgb(183,88,37);"/></g><g transform="matrix(0.893588,0.893588,-1.13866,1.13866,-1361.83,-1289.84)"><path d="M1555.34,-16.94L1555.34,22.189" style="fill:none;"/></g><g transform="matrix(1,0,0,1,-2661.14,-2621.67)"><path d="M2719.73,2682.65L2722.45,2685.38L2722.76,2685.18L2760.18,2647.75C2760.96,2646.97 2760.96,2645.7 2760.18,2644.92C2759.4,2644.14 2758.14,2644.14 2757.36,2644.92L2719.93,2682.35L2719.73,2682.65Z" style="fill:rgb(181,131,10);"/></g><g transform="matrix(1,0,0,1,-2661.14,-2621.67)"><path d="M2775.64,2626.84L2775.05,2627.23L2763.98,2638.3C2763.2,2639.08 2763.2,2640.34 2763.98,2641.12C2764.76,2641.91 2766.03,2641.91 2766.81,2641.12L2777.88,2630.05L2778.27,2629.47L2775.64,2626.84Z" style="fill:rgb(181,131,10);"/></g></g></g></g></svg>