<!--?xml version="1.0" standalone="no"?-->
              <svg id="sw-js-blob-svg" viewBox="0 0 100 100" xmlns="http://www.w3.org/2000/svg" version="1.1" height="500">
                    <defs> 
                        <linearGradient id="sw-gradient" x1="0" x2="1" y1="1" y2="0">
                            <stop id="stop1" stop-color="rgba(8, 152, 231, 1)" offset="0%"></stop>
                            <stop id="stop2" stop-color="rgba(72.073, 190.196, 255, 1)" offset="100%"></stop>
                        </linearGradient>
                    </defs>
                <path fill="url(#sw-gradient)" d="M13.5,-22.9C19,-20.2,26,-19.6,30.7,-16.1C35.5,-12.7,38.2,-6.3,38.5,0.2C38.8,6.7,36.9,13.4,32.6,17.8C28.3,22.1,21.6,24,15.8,25.5C10,27,5,28.1,-1.5,30.7C-8.1,33.4,-16.2,37.7,-23.3,37C-30.5,36.3,-36.7,30.6,-39.1,23.5C-41.5,16.5,-40.1,8.3,-37.2,1.7C-34.2,-4.9,-29.7,-9.7,-27.3,-16.8C-25,-23.8,-24.7,-33.1,-20.5,-36.5C-16.3,-40,-8.2,-37.6,-2.1,-34C4,-30.4,8,-25.6,13.5,-22.9Z" width="100%" height="100%" transform="translate(50 50)" stroke-width="0" style="transition: all 0.3s ease 0s;" stroke="url(#sw-gradient)"></path>
              </svg>