<svg xmlns="http://www.w3.org/2000/svg" width="41" height="27.336" viewBox="0 0 41 27.336">
  <g id="Sendicon" transform="translate(1 -80.944)">
    <path id="Path_19" data-name="Path 19" d="M175.476,347.378l8.064-5.4" transform="translate(-162.116 -239.781)" fill="#b6b6b6"/>
    <g id="Group_11" data-name="Group 11" transform="translate(11.297 81.627)">
      <path id="Path_20" data-name="Path 20" d="M178.21,299.173l-2.734,8.884,8.064-5.4Z" transform="translate(-173.426 -282.088)" fill="#ccc"/>
      <path id="Path_21" data-name="Path 21" d="M155.08,106.421l-2.665,8.884L150.3,103.687l28.019-14.351Z" transform="translate(-150.296 -89.336)" fill="#ccc"/>
      <path id="Path_22" data-name="Path 22" d="M231.6,100.59a.718.718,0,0,1-.615-.342l-21.937,16.2,13.668,8.884,9.089-24.739H231.6" transform="translate(-204.266 -99.36)" fill="#ccc"/>
    </g>
    <path id="Path_23" data-name="Path 23" d="M228.185,115.2,209.05,129.552l12.3,7.517,8.2-22.552Z" transform="translate(-192.969 -30.839)" fill="#e2e3e5"/>
    <path id="Path_24" data-name="Path 24" d="M44.2,95.212,6.768,102.934l11.68,6.151,26.3-13.463a.848.848,0,0,1-.546-.41" transform="translate(-7.135 -13.106)" fill="#fff"/>
    <path id="Path_25" data-name="Path 25" d="M66.253,114.517l-33.465,7.517,9.562,4.784,24.382-11.891a.722.722,0,0,1-.478-.41" transform="translate(-31.037 -30.839)" fill="#e2e3e5"/>
    <g id="Group_12" data-name="Group 12" transform="translate(-1 80.944)">
      <path id="Path_26" data-name="Path 26" d="M29.755,108.28a.521.521,0,0,1-.342-.137L15.752,99.259a.541.541,0,0,1-.342-.547.622.622,0,0,1,.273-.547L32.077,86.138,11.654,96.594a.948.948,0,0,1-.615,0L-.641,90.443a.6.6,0,0,1-.342-.683A.6.6,0,0,1-.5,89.145l39.617-8.2h.342a1.429,1.429,0,0,1,.41.273h0v.068A.5.5,0,0,1,40,81.7h0V81.9L30.438,107.87a.616.616,0,0,1-.41.41ZM17.323,98.644l12.09,7.859,8.47-22.962ZM1.682,90.1l9.631,5.126L34.536,83.336Z" transform="translate(1 -80.944)" fill="#b6b6b6"/>
      <path id="Path_27" data-name="Path 27" d="M168.007,340.593a.844.844,0,0,1-.547-.273.672.672,0,0,1,.205-.957l8.064-5.4a.692.692,0,0,1,.752,1.162l-8.064,5.4C168.28,340.524,168.143,340.593,168.007,340.593Z" transform="translate(-153.647 -313.257)" fill="#b6b6b6"/>
      <path id="Path_28" data-name="Path 28" d="M144.506,108.305h0a.735.735,0,0,1-.683-.547L141.707,96.14a.687.687,0,0,1,.341-.752l28-14.351a.671.671,0,0,1,.888.273.608.608,0,0,1-.2.888L147.784,99.147l-2.663,8.679A.656.656,0,0,1,144.506,108.305Zm-1.366-11.891,1.5,8.337,1.844-6.151a.683.683,0,0,1,.273-.342l16.39-12.028Z" transform="translate(-130.071 -80.969)" fill="#b6b6b6"/>
      <path id="Path_29" data-name="Path 29" d="M167.566,301.295a.971.971,0,0,1-.41-.137.813.813,0,0,1-.273-.752l2.734-8.884a.616.616,0,0,1,.41-.41.665.665,0,0,1,.615.068l5.331,3.485a.7.7,0,0,1,.342.547.71.71,0,0,1-.273.547l-8.064,5.4A.972.972,0,0,1,167.566,301.295Zm3.144-8.474-1.914,6.151,5.6-3.759Z" transform="translate(-153.206 -273.959)" fill="#b6b6b6"/>
    </g>
  </g>
</svg>
