<svg xmlns="http://www.w3.org/2000/svg" width="371.924" height="204.136" viewBox="0 0 371.924 204.136">
  <g id="logo" transform="translate(0 0)">
    <g id="Group_2" data-name="Group 2" transform="translate(0 0)">
      <g id="Group_1" data-name="Group 1">
        <path id="Path_1" data-name="Path 1" d="M208.179,186.533c6.824-1.929,14.094-4.006,21.956-6.157,7.789-2.151,15.651-4.228,23.44-6.157s15.355-3.561,22.7-4.747a115.4,115.4,0,0,1,19.583-1.854c7.047,0,12.239.668,15.577,1.929s5.415,2.67,6.157,4.154a3.213,3.213,0,0,1-.89,4.154,8.181,8.181,0,0,1-5.712,1.929,4.8,4.8,0,0,0,1.78,2.077,8.349,8.349,0,0,0,2.819,1.409,16.466,16.466,0,0,0,4.747.519,21.359,21.359,0,0,0,5.267-.668,13.319,13.319,0,0,0,4.747-2.225,12.782,12.782,0,0,0,3.412-3.783,11.125,11.125,0,0,0,1.335-5.637q0-4.784-4.451-8.011c-2.893-2.151-7.566-3.264-13.945-3.264a182.429,182.429,0,0,0-22.179,1.484q-11.794,1.558-23.811,3.783c-8.011,1.558-15.948,3.264-23.885,5.192s-15.5,3.857-22.772,5.786c-7.2,1.929-13.945,3.709-20.176,5.415-6.231,1.632-11.646,2.967-16.171,4.006a64.905,64.905,0,0,1-10.682,1.632c-2.6.148-3.857-.371-3.857-1.558a14.774,14.774,0,0,0-1.558,1.409,7.361,7.361,0,0,0-.964,1.706,4.9,4.9,0,0,0-.445,2q0,1.446,2,2a18.656,18.656,0,0,0,5.563.593,63.677,63.677,0,0,0,12.091-2.225C195.272,190.168,201.354,188.461,208.179,186.533Z" transform="translate(-170.2 -160.2)" fill="#053e6e"/>
        <path id="Path_2" data-name="Path 2" d="M415.839,302.044a93.942,93.942,0,0,1-6.824,9.272,55.972,55.972,0,0,1-9.643,9.05,18.145,18.145,0,0,1-11.2,4.08c-3.857,0-6.528-1.706-7.937-5.118a27.081,27.081,0,0,1-1.78-11.794,76.367,76.367,0,0,1,2.3-15.355c1.409-5.786,3.19-11.794,5.341-18.1s4.525-12.536,6.973-18.767,4.747-12.017,6.75-17.283c2.077-5.267,3.783-9.866,5.192-13.8,1.409-3.857,2.077-6.6,2.077-8.085q0-4.228-6.008-4.228a16.541,16.541,0,0,0-3.412.445c-1.335.3-2.745.593-4.154.964-1.632.445-3.338.89-5.118,1.261a3.728,3.728,0,0,1,3.931,2.745c.668,1.854.223,3.857-1.335,6.083-3.635,5.267-8.011,11.572-13.2,18.841s-10.607,14.91-16.319,22.921-11.5,16.022-17.357,24.108-11.349,15.429-16.393,22.1c1.113-11.5,2.225-22.846,3.264-34.047,1.038-11.127,1.854-21.141,2.522-29.968.742-8.827,1.261-16.022,1.706-21.586.371-5.563.593-8.6.593-9.05a3.963,3.963,0,0,0-1.335-3.709,4.894,4.894,0,0,0-2.893-1.261,15.95,15.95,0,0,0-3.412.445c-1.335.3-2.745.593-4.154.964-1.632.445-3.338.89-5.118,1.261,2,0,3.412,1.261,4.228,3.709s.371,5.341-1.409,8.6q-5.118,11.794-13.352,26.926c-5.489,10.088-11.572,20.325-18.247,30.858q-10.125,15.8-21.215,30.932a300.677,300.677,0,0,1-22.4,27,142.872,142.872,0,0,1-21.66,19.064c-6.973,4.822-13.352,7.2-18.989,7.2a7.747,7.747,0,0,1-8.085-5.192,16.629,16.629,0,0,1-.964-5.267,29.044,29.044,0,0,1,.445-6.083c.742-4.822,4.451-17.061,4.3-17.283,4.451-12.758,17.135-51.776,19.879-58.9,2.893-7.789,5.712-15.355,8.456-22.624,2.67-7.269,5.192-14.168,7.418-20.621s4.154-12.165,5.786-16.987c1.632-4.9,2.967-8.753,3.931-11.72a50.6,50.6,0,0,0,1.409-4.97q0-2.337-1.335-2.893a11.808,11.808,0,0,0-4.3-.593,20.47,20.47,0,0,0-4.228.445c-1.409.3-2.819.593-4.08.964-1.409.445-2.819.89-4.228,1.261,1.78,0,2.67,1.113,2.819,3.264a18.652,18.652,0,0,1-1.261,7.344s-45.619,131-45.767,131.665a29.239,29.239,0,0,0-1.038,8.9,32.4,32.4,0,0,0,1.854,10.9,22.725,22.725,0,0,0,6.083,9.272c2.819,2.6,6.6,3.857,11.423,3.857,5.637,0,11.794-1.78,18.4-5.267A101.706,101.706,0,0,0,243.081,353.6a223.157,223.157,0,0,0,21.066-21.956c7.121-8.382,14.02-17.506,20.77-27.223q10.125-14.687,19.286-30.487c6.082-10.607,11.646-21.14,16.616-31.748-.148,1.038-.223,2.893-.445,5.563s-.519,7.047-.964,13.2c-.519,6.157-1.113,14.613-2,25.294s-2.077,24.775-3.635,42.133c0,.964.519,1.409,1.558,1.409a11.856,11.856,0,0,0,3.635-.668,16.139,16.139,0,0,0,4.006-1.854,8.923,8.923,0,0,0,2.819-2.67c3.783-4.822,8.085-10.607,13.055-17.283s10.014-13.8,15.206-21.363c5.192-7.492,10.533-15.132,15.8-22.847s10.162-15.058,14.613-21.956c-1.929,5.637-3.931,11.572-6.231,17.877s-4.451,12.462-6.528,18.618c-2.077,6.083-3.783,11.943-5.118,17.357a61.522,61.522,0,0,0-2,14.168q0,10.236,5.341,15.577c3.561,3.56,8.753,5.415,15.429,5.415a17.7,17.7,0,0,0,6.157-1.113,24.382,24.382,0,0,0,5.786-3.116,37.814,37.814,0,0,0,5.415-4.376,62.572,62.572,0,0,0,4.821-5.118,81.516,81.516,0,0,0,9.866-13.945,5.316,5.316,0,0,0,1.261-3.264v-1.854A44.019,44.019,0,0,1,415.839,302.044Z" transform="translate(-174.022 -169.341)" fill="#053e6e"/>
      </g>
      <path id="Path_3" data-name="Path 3" d="M484.123,246.2a51.61,51.61,0,0,0,5.118-1.261c1.409-.371,2.819-.668,4.154-.964a16.54,16.54,0,0,1,3.412-.445c3.412,0,5.489.816,6.157,2.374q1.113,2.337-1.78,9.791c-.519,1.261-1.113,3.116-1.929,5.415s-1.78,4.822-2.819,7.64-2.225,5.86-3.412,9.05c-1.261,3.264-2.448,6.454-3.635,9.643-2.819,7.418-5.86,15.429-8.975,24.182,2.151-3.19,4.822-6.9,8.085-11.127,2.745-3.635,6.231-8.011,10.607-13.129s9.495-11.052,15.5-17.728c4.97-5.415,10.756-11.423,17.506-18.1a250.642,250.642,0,0,1,21.14-18.693,147.842,147.842,0,0,1,21.882-14.613c7.2-3.931,13.8-5.934,19.657-5.934,4.822,0,8.6,1.261,11.5,3.857a22.724,22.724,0,0,1,6.083,9.272,32.394,32.394,0,0,1,1.854,10.9,31.783,31.783,0,0,1-1.039,8.9,7.667,7.667,0,0,1-2.745,3.709,17.977,17.977,0,0,1-4.747,2.745,11.87,11.87,0,0,1-4.97.816,4.243,4.243,0,0,1-3.635-2.448,74.426,74.426,0,0,0,4.747-16.542,29.044,29.044,0,0,0,.445-6.083,16.622,16.622,0,0,0-.964-5.267,7.747,7.747,0,0,0-8.085-5.192c-4.451,0-9.791,1.632-15.948,5.044a135.658,135.658,0,0,0-19.805,13.426,273.446,273.446,0,0,0-21.808,19.36q-11.238,11.015-21.882,23.069c-7.121,8.085-13.8,16.171-20.1,24.33s-11.72,15.874-16.319,23.218c-.89,1.854-2,4.228-3.338,6.973-1.261,2.745-2.67,5.563-4.006,8.382s-2.6,5.489-3.783,8.011-2.077,4.525-2.819,6.083a9.53,9.53,0,0,1-3.635,4.08,16.79,16.79,0,0,1-5.118,2.151,8.77,8.77,0,0,1-4.154.074q-1.558-.445-.89-2c2.67-7.047,5.415-14.39,8.16-21.956,2.819-7.566,5.489-15.058,8.085-22.327,2.67-7.269,5.118-14.242,7.492-20.918,2.374-6.6,4.451-12.61,6.231-17.877,1.854-5.267,3.338-9.717,4.6-13.352,1.261-3.56,2-5.934,2.374-6.973a9.255,9.255,0,0,0,.519-4.525,7.655,7.655,0,0,0-1.038-2.893A4.409,4.409,0,0,0,484.123,246.2Zm1.039,65.424a75.67,75.67,0,0,1,8.085-6.676,71.038,71.038,0,0,1,7.863-4.673,18.187,18.187,0,0,1,8.382-2.225,14.858,14.858,0,0,1,4.97.668,6.786,6.786,0,0,1,2.745,1.78,5.174,5.174,0,0,1,1.261,2.448,17.656,17.656,0,0,1,.222,2.67c0,1.335,0,3.412-.074,6.379s-.148,6.231-.148,9.866-.074,7.418-.074,11.275.148,7.418.445,10.681a67.962,67.962,0,0,0,1.113,7.937c.445,2.077,1.187,3.116,2.151,3.116,2.151,0,4.6-1.187,7.418-3.561a83.242,83.242,0,0,0,8.233-8.011,93.491,93.491,0,0,0,7.121-8.9,68.708,68.708,0,0,0,4.228-6.157,3.448,3.448,0,0,1,.074,2,11.073,11.073,0,0,1-.964,2.745c-.445.964-.964,1.854-1.409,2.67s-.816,1.409-1.039,1.78c-1.261,1.854-3.041,4.228-5.192,6.973a79.9,79.9,0,0,1-7.2,7.937,56.823,56.823,0,0,1-8.382,6.528,16.2,16.2,0,0,1-8.827,2.745,8.031,8.031,0,0,1-7.344-4.154,31.093,31.093,0,0,1-3.338-10.385,78.239,78.239,0,0,1-.89-13.574q.111-7.344.222-13.574a69.384,69.384,0,0,0-.519-10.385c-.371-2.745-1.335-4.154-2.745-4.154a13.738,13.738,0,0,0-7.714,2.819,61.648,61.648,0,0,0-7.64,6.157c-2.67,2.67-5.415,5.712-8.085,8.975Z" transform="translate(-242.305 -173.654)" fill="#053e6e"/>
    </g>
    <g id="Group_3" data-name="Group 3" transform="translate(300.269 113.862)">
      <path id="Path_4" data-name="Path 4" d="M578.783,313.8v22.624H575V313.8Z" transform="translate(-575 -313.726)" fill="#053e6e"/>
      <path id="Path_5" data-name="Path 5" d="M596.183,313.8l12.091,16.245V313.8h3.783v22.624h-3.783l-12.091-16.245v16.245H592.4V313.8Z" transform="translate(-579.493 -313.726)" fill="#053e6e"/>
      <path id="Path_6" data-name="Path 6" d="M640.817,317.038a7.975,7.975,0,1,0,0,15.948,9.336,9.336,0,0,0,6.3-2.67l2.225,2.522a12.685,12.685,0,0,1-8.753,3.709,11.528,11.528,0,0,1-11.794-11.5c0-6.454,5.192-11.349,11.868-11.349a12.637,12.637,0,0,1,8.6,3.486l-2.225,2.745A8.782,8.782,0,0,0,640.817,317.038Z" transform="translate(-588.893 -313.7)" fill="#053e6e"/>
      <path id="Path_7" data-name="Path 7" d="M668.205,340.977a2.032,2.032,0,0,1-2,2.151,1.989,1.989,0,0,1-2-2.151,1.968,1.968,0,0,1,2-2.077A2.012,2.012,0,0,1,668.205,340.977Z" transform="translate(-598.034 -320.207)" fill="#053e6e"/>
    </g>
  </g>
</svg>
